<svg width="54" height="54" viewBox="0 0 54 54" fill="none" xmlns="http://www.w3.org/2000/svg">
<path d="M10.5625 10.4286C10.5625 8.72361 11.2341 7.08848 12.4297 5.88288C13.6252 4.67729 15.2467 4 16.9375 4H42.4375C44.1283 4 45.7498 4.67729 46.9453 5.88288C48.1409 7.08848 48.8125 8.72361 48.8125 10.4286V26.5C48.8125 28.205 48.1409 29.8401 46.9453 31.0457C45.7498 32.2513 44.1283 32.9286 42.4375 32.9286H39.25V29.7143H42.4375C43.2829 29.7143 44.0936 29.3756 44.6914 28.7728C45.2892 28.17 45.625 27.3525 45.625 26.5V10.4286C45.625 9.57609 45.2892 8.75852 44.6914 8.15573C44.0936 7.55293 43.2829 7.21429 42.4375 7.21429H16.9375C16.0921 7.21429 15.2814 7.55293 14.6836 8.15573C14.0858 8.75852 13.75 9.57609 13.75 10.4286V20.0714H10.5625V10.4286ZM39.25 36.1429V39.3571H50.4062C50.8289 39.3571 51.2343 39.1878 51.5332 38.8864C51.8321 38.585 52 38.1762 52 37.75C52 37.3238 51.8321 36.915 51.5332 36.6136C51.2343 36.3122 50.8289 36.1429 50.4062 36.1429H39.25ZM1 29.7143C1 28.0093 1.67165 26.3742 2.86719 25.1686C4.06274 23.963 5.68424 23.2857 7.375 23.2857H29.6875C31.3783 23.2857 32.9998 23.963 34.1953 25.1686C35.3909 26.3742 36.0625 28.0093 36.0625 29.7143V42.5714C36.0625 44.2764 35.3909 45.9115 34.1953 47.1171C32.9998 48.3227 31.3783 49 29.6875 49H7.375C5.68424 49 4.06274 48.3227 2.86719 47.1171C1.67165 45.9115 1 44.2764 1 42.5714V29.7143ZM7.375 26.5C6.52962 26.5 5.71887 26.8386 5.1211 27.4414C4.52332 28.0442 4.1875 28.8618 4.1875 29.7143V42.5714C4.1875 43.4239 4.52332 44.2415 5.1211 44.8443C5.71887 45.4471 6.52962 45.7857 7.375 45.7857H29.6875C30.5329 45.7857 31.3436 45.4471 31.9414 44.8443C32.5392 44.2415 32.875 43.4239 32.875 42.5714V29.7143C32.875 28.8618 32.5392 28.0442 31.9414 27.4414C31.3436 26.8386 30.5329 26.5 29.6875 26.5H7.375ZM13.75 40.9643C13.75 40.538 13.9179 40.1293 14.2168 39.8279C14.5157 39.5265 14.9211 39.3571 15.3438 39.3571H21.7188C22.1414 39.3571 22.5468 39.5265 22.8457 39.8279C23.1446 40.1293 23.3125 40.538 23.3125 40.9643C23.3125 41.3905 23.1446 41.7993 22.8457 42.1007C22.5468 42.4021 22.1414 42.5714 21.7188 42.5714H15.3438C14.9211 42.5714 14.5157 42.4021 14.2168 42.1007C13.9179 41.7993 13.75 41.3905 13.75 40.9643Z" fill="#050301"/>
</svg>
