<svg width="54" height="54" viewBox="0 0 54 54" fill="none" xmlns="http://www.w3.org/2000/svg">
<path d="M9 13.5V27C9 27 9 33.75 24.75 33.75C40.5 33.75 40.5 27 40.5 27V13.5" stroke="#050301" stroke-width="2" stroke-linecap="round" stroke-linejoin="round"/>
<path d="M24.75 47.25C9 47.25 9 40.5 9 40.5V27M24.75 6.75C40.5 6.75 40.5 13.5 40.5 13.5C40.5 13.5 40.5 20.25 24.75 20.25C9 20.25 9 13.5 9 13.5C9 13.5 9 6.75 24.75 6.75ZM38.9385 38.5043L40.9838 34.1685C41.039 34.0446 41.1289 33.9393 41.2427 33.8654C41.3565 33.7915 41.4893 33.7522 41.625 33.7522C41.7607 33.7522 41.8935 33.7915 42.0073 33.8654C42.1211 33.9393 42.211 34.0446 42.2662 34.1685L44.3137 38.5043L48.8857 39.204C49.473 39.294 49.707 40.05 49.284 40.482L45.9743 43.857L46.755 48.6225C46.854 49.2345 46.2398 49.7025 45.7155 49.4123L41.625 47.1623L37.5345 49.4123C37.0102 49.7025 36.396 49.2345 36.495 48.6225L37.2757 43.857L33.9683 40.482C33.5408 40.05 33.777 39.294 34.3642 39.204L38.9385 38.5043Z" stroke="#050301" stroke-width="2" stroke-linecap="round" stroke-linejoin="round"/>
</svg>
