<svg width="9" height="5" viewBox="0 0 9 5" fill="none" xmlns="http://www.w3.org/2000/svg">
<path d="M8.45 0.849952L4.825 4.47495C4.74167 4.55829 4.65833 4.61662 4.575 4.64995C4.49167 4.68328 4.4 4.69995 4.3 4.69995C4.2 4.69995 4.10833 4.68328 4.025 4.64995C3.94167 4.61662 3.85833 4.55829 3.775 4.47495L0.15 0.849952C0.1 0.799952 0.0626668 0.745618 0.0380001 0.686952C0.0133334 0.628285 0.000666667 0.565951 0 0.499951C0 0.366618 0.046 0.249951 0.138 0.149951C0.23 0.0499511 0.350667 -4.86374e-05 0.5 -4.86374e-05L8.1 -4.86374e-05C8.25 -4.86374e-05 8.371 0.0499511 8.463 0.149951C8.555 0.249951 8.60067 0.366618 8.6 0.499951C8.6 0.533285 8.55 0.649952 8.45 0.849952Z" fill="#f5841f"/>
</svg>
