<svg width="64" height="64" viewBox="0 0 64 64" fill="none" xmlns="http://www.w3.org/2000/svg">
<path d="M11.9459 53.3334C11.569 53.3334 11.2526 53.2054 10.9966 52.9494C10.7406 52.6934 10.6135 52.3761 10.6153 51.9974C10.617 51.6188 10.7441 51.3023 10.9966 51.0481C11.249 50.7939 11.5664 50.6667 11.9486 50.6667H15.1779V33.3334H11.9486C11.5699 33.3334 11.2535 33.2054 10.9993 32.9494C10.745 32.6934 10.617 32.3761 10.6153 31.9974C10.6135 31.6187 10.7415 31.3023 10.9993 31.0481C11.257 30.7939 11.5735 30.6667 11.9486 30.6667H15.1779V13.3334H11.9486C11.5699 13.3334 11.2535 13.2054 10.9993 12.9494C10.745 12.6934 10.617 12.3761 10.6153 11.9974C10.6135 11.6187 10.7415 11.3023 10.9993 11.0481C11.257 10.7939 11.5726 10.6667 11.9459 10.6667H51.9993C52.3779 10.6667 52.6944 10.7947 52.9486 11.0507C53.2028 11.3067 53.3308 11.6241 53.3326 12.0027C53.3344 12.3814 53.2064 12.6979 52.9486 12.9521C52.6908 13.2063 52.3744 13.3334 51.9993 13.3334H48.8206V30.6667H51.9993C52.3779 30.6667 52.6944 30.7947 52.9486 31.0507C53.2028 31.3067 53.3308 31.6241 53.3326 32.0028C53.3344 32.3814 53.2064 32.6979 52.9486 32.9521C52.6908 33.2063 52.3744 33.3334 51.9993 33.3334H48.8206V50.6667H51.9993C52.3779 50.6667 52.6944 50.7947 52.9486 51.0507C53.2028 51.3067 53.3308 51.6241 53.3326 52.0027C53.3344 52.3814 53.2064 52.6979 52.9486 52.9521C52.6908 53.2063 52.3744 53.3334 51.9993 53.3334H11.9459ZM17.8446 50.6667H46.1539V33.3334H44.8206C44.4419 33.3334 44.1246 33.2054 43.8686 32.9494C43.6126 32.6934 43.4855 32.3761 43.4873 31.9974C43.489 31.6187 43.6161 31.3023 43.8686 31.0481C44.121 30.7939 44.4384 30.6667 44.8206 30.6667H46.1539V13.3334H17.8446V30.6667H19.1779C19.5566 30.6667 19.8739 30.7947 20.1299 31.0507C20.3859 31.3067 20.513 31.6241 20.5113 32.0028C20.5095 32.3814 20.3824 32.6979 20.1299 32.9521C19.8775 33.2063 19.5601 33.3334 19.1779 33.3334H17.8446V50.6667ZM36.7166 39.0588C38.0161 37.7787 38.6659 36.2321 38.6659 34.4187C38.6659 32.9734 38.249 31.7325 37.4153 30.6961C36.5815 29.6596 34.7761 27.5307 31.9993 24.3094C29.2473 27.5147 27.4481 29.6436 26.6019 30.6961C25.7557 31.7485 25.3326 32.993 25.3326 34.4294C25.3326 36.2392 25.9806 37.7823 27.2766 39.0588C28.5708 40.337 30.1433 40.9761 31.9939 40.9761C33.8446 40.9761 35.4188 40.3361 36.7166 39.0561" fill="#050301"/>
</svg>
