<svg width="64" height="64" viewBox="0 0 64 64" fill="none" xmlns="http://www.w3.org/2000/svg">
<path d="M33.332 16.0001L25.332 28.0001H30.6654V36.0001L38.6654 24.0001H33.332V16.0001Z" fill="#050301"/>
<path fill-rule="evenodd" clip-rule="evenodd" d="M50.8777 25.9597C50.4656 29.1566 49.0607 32.1786 46.8293 34.6679C45.5237 36.1278 42.2055 40.2939 41.4997 43.0001H22.4996C21.7939 40.2914 18.4716 36.1241 17.166 34.6642C14.9356 32.1738 13.5321 29.1509 13.1217 25.9534C12.7172 22.7628 13.3259 19.5331 14.8751 16.6506C16.438 13.7455 18.8689 11.305 21.8862 9.61193C24.9285 7.9007 28.4309 6.99644 32.0024 7.00007C35.5826 7.00007 39.0894 7.90628 42.1186 9.61566C45.135 11.3094 47.565 13.7503 49.1269 16.6555C50.6754 19.5387 51.2833 22.7688 50.8777 25.9597ZM39.5767 40.5173H24.4213C23.8432 39.297 23.071 38.0743 22.3517 37.0352C21.4048 35.67 20.3754 34.3542 19.2682 33.0939C17.3659 30.9706 16.1687 28.3931 15.8183 25.6667C15.4737 22.9495 15.992 20.199 17.3112 17.7442C18.6486 15.2598 20.7286 13.1731 23.3098 11.726C25.9241 10.2559 28.9336 9.47926 32.0024 9.48283C35.0831 9.48283 38.096 10.2637 40.695 11.7297C43.2752 13.1772 45.3542 15.2639 46.6909 17.7479C48.0094 20.2034 48.5268 22.9543 48.181 25.6717C47.8294 28.3975 46.6312 30.974 44.7284 33.0963C43.6194 34.3551 42.5903 35.671 41.6463 37.0377C40.927 38.0768 40.1548 39.297 39.5767 40.5173Z" fill="#050301"/>
<path d="M22.666 46.9999C22.666 46.6463 22.8065 46.3071 23.0565 46.0571C23.3066 45.807 23.6457 45.6666 23.9993 45.6666H39.9993C40.353 45.6666 40.6921 45.807 40.9422 46.0571C41.1922 46.3071 41.3327 46.6463 41.3327 46.9999C41.3327 47.3535 41.1922 47.6927 40.9422 47.9427C40.6921 48.1928 40.353 48.3332 39.9993 48.3332H23.9993C23.6457 48.3332 23.3066 48.1928 23.0565 47.9427C22.8065 47.6927 22.666 47.3535 22.666 46.9999Z" fill="#050301"/>
<path fill-rule="evenodd" clip-rule="evenodd" d="M22.666 51.0001H41.3327V55.0001C41.3327 55.7073 41.0517 56.3856 40.5516 56.8857C40.0515 57.3858 39.3733 57.6667 38.666 57.6667H25.3327C24.6254 57.6667 23.9472 57.3858 23.4471 56.8857C22.947 56.3856 22.666 55.7073 22.666 55.0001V51.0001ZM25.3327 53.6667H38.666V55.0001H25.3327V53.6667Z" fill="#050301"/>
</svg>
