<svg width="64" height="64" viewBox="0 0 64 64" fill="none" xmlns="http://www.w3.org/2000/svg">
<path d="M27.8407 7.936C30.5112 6.86769 33.4902 6.86769 36.1607 7.936L54.5831 15.3088C56.4071 16.0352 57.6007 17.8016 57.6007 19.7632V44.2304C57.6009 45.1899 57.3134 46.1274 56.7756 46.922C56.2377 47.7166 55.474 48.3317 54.5831 48.688L36.1607 56.0576C34.6444 56.6641 33.0137 56.9317 31.3831 56.8416C31.169 56.4619 30.9042 56.113 30.5959 55.8048L30.4007 55.6128V28.2816L9.6007 19.9616V28.8896C8.50971 29.01 7.43608 29.2548 6.4007 29.6192V19.7632C6.40118 18.8042 6.68889 17.8674 7.22673 17.0735C7.76458 16.2795 8.5279 15.6649 9.4183 15.3088L27.8407 7.936ZM34.9735 10.912C33.0662 10.149 30.9384 10.149 29.0311 10.912L24.7111 12.64L44.4007 20.512L51.6935 17.6L34.9735 10.912ZM40.0935 22.24L20.4007 14.3584L12.3079 17.5968L32.0007 25.4752L40.0935 22.24ZM54.4007 19.9584L33.6007 28.2784V53.4944C34.07 53.3984 34.5266 53.2619 34.9703 53.0848L53.3959 45.7152C53.693 45.5961 53.9476 45.3907 54.1267 45.1254C54.3058 44.8602 54.4013 44.5473 54.4007 44.2272V19.9584ZM11.2007 54.4C13.7159 54.4 16.0391 53.568 17.9079 52.1696L26.0679 60.3296C26.2165 60.4784 26.3929 60.5964 26.587 60.677C26.7812 60.7576 26.9893 60.7991 27.1996 60.7993C27.4098 60.7994 27.618 60.7582 27.8123 60.6779C28.0066 60.5975 28.1831 60.4797 28.3319 60.3312C28.4807 60.1826 28.5987 60.0062 28.6793 59.8121C28.7599 59.6179 28.8014 59.4098 28.8016 59.1995C28.8017 58.9893 28.7605 58.7811 28.6802 58.5868C28.5998 58.3925 28.4821 58.216 28.3335 58.0672L20.1735 49.9072C21.6839 47.8873 22.4684 45.4167 22.3998 42.8954C22.3312 40.3741 21.4136 37.9498 19.7956 36.015C18.1775 34.0802 15.9538 32.7482 13.4845 32.2346C11.0151 31.7211 8.44469 32.056 6.18941 33.1853C3.93413 34.3145 2.12604 36.1719 1.05788 38.4568C-0.0102681 40.7416 -0.275938 43.3201 0.303892 45.7748C0.883722 48.2294 2.2751 50.4165 4.25275 51.9819C6.23039 53.5472 8.67851 54.3993 11.2007 54.4ZM11.2007 51.2C9.07897 51.2 7.04414 50.3571 5.54385 48.8569C4.04356 47.3566 3.2007 45.3217 3.2007 43.2C3.2007 41.0783 4.04356 39.0434 5.54385 37.5431C7.04414 36.0429 9.07897 35.2 11.2007 35.2C13.3224 35.2 15.3573 36.0429 16.8576 37.5431C18.3578 39.0434 19.2007 41.0783 19.2007 43.2C19.2007 45.3217 18.3578 47.3566 16.8576 48.8569C15.3573 50.3571 13.3224 51.2 11.2007 51.2Z" fill="#050301"/>
</svg>
