<svg width="64" height="64" viewBox="0 0 64 64" fill="none" xmlns="http://www.w3.org/2000/svg">
<path fill-rule="evenodd" clip-rule="evenodd" d="M32.324 13.1333C32.2252 13.0786 32.1142 13.05 32.0013 13.05C31.8884 13.05 31.7774 13.0786 31.6786 13.1333L8.97196 25.7466C8.51087 25.9782 7.97811 26.0227 7.48503 25.8707C6.99194 25.7186 6.57668 25.3819 6.32603 24.9309C6.07539 24.4799 6.00876 23.9495 6.14006 23.4505C6.27137 22.9515 6.59045 22.5225 7.03062 22.2533L29.7346 9.63994C30.428 9.25467 31.2081 9.05249 32.0013 9.05249C32.7945 9.05249 33.5746 9.25467 34.268 9.63994L56.972 22.2533C57.2129 22.3743 57.4269 22.5428 57.6011 22.7487C57.7753 22.9546 57.906 23.1936 57.9855 23.4513C58.0649 23.709 58.0914 23.9801 58.0634 24.2483C58.0354 24.5165 57.9534 24.7763 57.8224 25.012C57.6914 25.2477 57.5141 25.4545 57.3011 25.6199C57.0882 25.7854 56.844 25.906 56.5832 25.9746C56.3224 26.0433 56.0504 26.0584 55.7836 26.0192C55.5168 25.9801 55.2607 25.8873 55.0306 25.7466L32.324 13.1333ZM24.668 23.9999C24.668 23.4695 24.8787 22.9608 25.2537 22.5857C25.6288 22.2107 26.1375 21.9999 26.668 21.9999H37.3346C37.8651 21.9999 38.3738 22.2107 38.7488 22.5857C39.1239 22.9608 39.3346 23.4695 39.3346 23.9999C39.3346 24.5304 39.1239 25.0391 38.7488 25.4142C38.3738 25.7892 37.8651 25.9999 37.3346 25.9999H26.668C26.1375 25.9999 25.6288 25.7892 25.2537 25.4142C24.8787 25.0391 24.668 24.5304 24.668 23.9999ZM16.0013 29.9999C16.5317 29.9999 17.0404 30.2107 17.4155 30.5857C17.7906 30.9608 18.0013 31.4695 18.0013 31.9999V45.3333C18.0013 45.8637 17.7906 46.3724 17.4155 46.7475C17.0404 47.1226 16.5317 47.3333 16.0013 47.3333C15.4709 47.3333 14.9621 47.1226 14.5871 46.7475C14.212 46.3724 14.0013 45.8637 14.0013 45.3333V31.9999C14.0013 31.4695 14.212 30.9608 14.5871 30.5857C14.9621 30.2107 15.4709 29.9999 16.0013 29.9999ZM26.668 29.9999C27.1984 29.9999 27.7071 30.2107 28.0822 30.5857C28.4572 30.9608 28.668 31.4695 28.668 31.9999V45.3333C28.668 45.8637 28.4572 46.3724 28.0822 46.7475C27.7071 47.1226 27.1984 47.3333 26.668 47.3333C26.1375 47.3333 25.6288 47.1226 25.2537 46.7475C24.8787 46.3724 24.668 45.8637 24.668 45.3333V31.9999C24.668 31.4695 24.8787 30.9608 25.2537 30.5857C25.6288 30.2107 26.1375 29.9999 26.668 29.9999ZM37.3346 29.9999C37.8651 29.9999 38.3738 30.2107 38.7488 30.5857C39.1239 30.9608 39.3346 31.4695 39.3346 31.9999V45.3333C39.3346 45.8637 39.1239 46.3724 38.7488 46.7475C38.3738 47.1226 37.8651 47.3333 37.3346 47.3333C36.8042 47.3333 36.2955 47.1226 35.9204 46.7475C35.5453 46.3724 35.3346 45.8637 35.3346 45.3333V31.9999C35.3346 31.4695 35.5453 30.9608 35.9204 30.5857C36.2955 30.2107 36.8042 29.9999 37.3346 29.9999ZM48.0013 29.9999C48.5317 29.9999 49.0404 30.2107 49.4155 30.5857C49.7906 30.9608 50.0013 31.4695 50.0013 31.9999V45.3333C50.0013 45.8637 49.7906 46.3724 49.4155 46.7475C49.0404 47.1226 48.5317 47.3333 48.0013 47.3333C47.4709 47.3333 46.9621 47.1226 46.5871 46.7475C46.212 46.3724 46.0013 45.8637 46.0013 45.3333V31.9999C46.0013 31.4695 46.212 30.9608 46.5871 30.5857C46.9621 30.2107 47.4709 29.9999 48.0013 29.9999ZM11.3346 53.3333C11.3346 52.8028 11.5453 52.2941 11.9204 51.9191C12.2955 51.544 12.8042 51.3333 13.3346 51.3333H50.668C51.1984 51.3333 51.7071 51.544 52.0822 51.9191C52.4572 52.2941 52.668 52.8028 52.668 53.3333C52.668 53.8637 52.4572 54.3724 52.0822 54.7475C51.7071 55.1226 51.1984 55.3333 50.668 55.3333H13.3346C12.8042 55.3333 12.2955 55.1226 11.9204 54.7475C11.5453 54.3724 11.3346 53.8637 11.3346 53.3333Z" fill="#050301"/>
</svg>
