<svg width="64" height="64" viewBox="0 0 64 64" fill="none" xmlns="http://www.w3.org/2000/svg">
<path fill-rule="evenodd" clip-rule="evenodd" d="M42.6674 50.2858C50.256 50.2858 56.3817 47.2382 56.3817 42.6668V13.7144C56.3817 10.6668 50.2865 7.61914 42.6674 7.61914C35.0484 7.61914 28.9531 10.6668 28.9531 13.7144V24.381C32.5188 25.8744 35.5665 28.3734 37.7303 31.5429C39.2236 31.8355 40.8693 31.997 42.6674 31.997C46.6598 31.997 49.9817 31.2016 52.3588 29.9064C52.6963 29.7209 53.0248 29.5195 53.3432 29.3029V33.5087C53.3432 34.2249 52.7733 35.3372 50.899 36.3612C49.0826 37.3517 46.2971 38.0801 42.6705 38.0801C41.9451 38.0801 41.2543 38.0527 40.5981 37.9978C40.8419 38.9995 41.0044 40.0255 41.0857 41.0759C41.5997 41.1043 42.128 41.1186 42.6705 41.1186C46.6628 41.1186 49.9847 40.3231 52.3619 39.0279C52.6994 38.8424 53.0279 38.6411 53.3463 38.4245V42.6302C53.3463 43.3494 52.8922 44.4161 50.9356 45.4706C49.0095 46.5068 46.1204 47.2016 42.6766 47.2016C41.9756 47.2016 41.297 47.1732 40.6407 47.1163C40.4065 48.1293 40.0915 49.1219 39.699 50.0847C40.658 50.1923 41.6495 50.2462 42.6735 50.2462L42.6674 50.2858ZM50.896 27.2458C52.7703 26.2218 53.3402 25.1094 53.3402 24.3932V20.1875C53.0253 20.4029 52.6971 20.604 52.3558 20.791C49.9847 22.0862 46.6567 22.8816 42.6644 22.8816C38.672 22.8816 35.3501 22.0862 32.9729 20.791C32.6355 20.6055 32.307 20.4041 31.9886 20.1875V24.3932C31.9886 25.1094 32.5585 26.2218 34.4327 27.2428C36.2491 28.2332 39.0346 28.9616 42.6613 28.9616C46.288 28.9616 49.0613 28.2332 50.8899 27.2428L50.896 27.2458ZM32.0007 15.2382C32.0007 14.3605 32.3817 13.5163 33.0918 13.0012C33.4788 12.7209 33.8994 12.4405 34.2316 12.2881C35.0636 11.9041 39.2297 10.6637 42.6735 10.6637C46.1173 10.6637 49.104 11.3555 51.1154 12.2881C51.4933 12.4618 51.9108 12.733 52.2796 13.0012C52.9836 13.5102 53.3463 14.3483 53.3463 15.2169V15.2351C53.3463 15.9513 52.7764 17.0637 50.9021 18.0877C49.0857 19.0782 46.3002 19.8066 42.6735 19.8066C39.0468 19.8066 36.2735 19.0751 34.4449 18.0877C32.5706 17.0668 32.0007 15.9513 32.0007 15.2382Z" fill="#050301"/>
<path fill-rule="evenodd" clip-rule="evenodd" d="M35.0477 42.6667C35.0477 50.2553 28.922 56.381 21.3334 56.381C13.7449 56.381 7.61914 50.2553 7.61914 42.6667C7.61914 35.0781 13.7449 28.9524 21.3334 28.9524C28.922 28.9524 35.0477 35.0781 35.0477 42.6667ZM32.0001 42.6667C32.0001 48.5486 27.2153 53.3333 21.3334 53.3333C15.4515 53.3333 10.6668 48.5486 10.6668 42.6667C10.6668 36.7848 15.4515 32 21.3334 32C27.2153 32 32.0001 36.7848 32.0001 42.6667Z" fill="#050301"/>
</svg>
