<svg width="185" height="36" viewBox="0 0 185 36" fill="none" xmlns="http://www.w3.org/2000/svg">
<g clip-path="url(#clip0_1_37)">
<path d="M16.7353 1.24887C16.7353 1.51452 16.5677 1.73186 16.3762 1.73186C16.1367 1.73186 16.0171 1.99751 16.0171 2.57711C16.0171 3.13255 15.8974 3.42235 15.6819 3.42235C15.3228 3.42235 15.0595 4.14684 15.0595 5.16112C15.0595 5.57167 14.9397 5.83732 14.7243 5.83732C14.5088 5.83732 14.3652 6.39276 14.2455 7.84178C14.0539 10.3292 14.2694 12.5992 14.7243 12.5992C14.9397 12.5992 15.0595 12.8891 15.0595 13.4203C15.0595 14.0241 15.1792 14.2656 15.5383 14.3622C15.8974 14.4588 16.0171 14.7003 16.0171 15.2316C16.0171 15.7387 16.1367 15.9802 16.3762 15.9802C16.5677 15.9802 16.7353 16.1975 16.7353 16.4632C16.7353 16.8496 16.5677 16.9462 15.9932 16.9462C15.4665 16.9462 15.227 16.8255 15.1313 16.4632C15.0355 16.101 14.7961 15.9802 14.1976 15.9802C13.623 15.9802 13.3836 15.8594 13.3836 15.6179C13.3836 15.3765 13.1203 15.2557 12.5457 15.2557C11.9951 15.2557 11.7078 15.135 11.7078 14.9176C11.7078 14.4346 10.9417 14.2898 8.3082 14.2898C6.39299 14.2898 5.96206 14.3622 5.96206 14.652C5.96206 14.8935 5.62689 15.0625 5.00444 15.1591C4.42986 15.2557 4.04682 15.4489 4.04682 15.6421C4.04682 15.8594 3.78347 15.9802 3.37648 15.9802C3.01738 15.9802 2.53856 16.1975 2.29916 16.4632C2.08369 16.7289 1.70065 16.9462 1.4373 16.9462C1.15001 16.9462 0.934553 17.1636 0.838787 17.55C0.647265 18.2744 0.814851 18.6367 1.3176 18.6367C1.50913 18.6367 1.65276 18.8058 1.65276 18.999C1.65276 19.2405 1.89217 19.3612 2.46674 19.3612C3.06526 19.3612 3.30466 19.482 3.40042 19.8442C3.49619 20.2306 3.73559 20.3272 4.62139 20.3272C5.43537 20.3272 5.72265 20.4238 5.72265 20.6894C5.72265 21.0034 6.2254 21.0516 8.7152 21.0516C11.205 21.0516 11.7078 21.0034 11.7078 20.6894C11.7078 20.4479 11.9472 20.3272 12.4978 20.3272C12.9766 20.3272 13.4315 20.1339 13.6948 19.8442C13.9103 19.5786 14.3652 19.3612 14.7004 19.3612C15.0834 19.3612 15.2988 19.2163 15.2988 18.999C15.2988 18.7574 15.5383 18.6367 16.0171 18.6367C16.6874 18.6367 16.7353 18.7091 16.7353 19.482C16.7353 20.0374 16.6156 20.3272 16.4002 20.3272C16.2086 20.3272 15.9932 20.6894 15.9213 21.1724C15.8255 21.6796 15.6101 22.0177 15.4186 22.0177C15.1792 22.0177 15.0595 22.2833 15.0595 22.8629C15.0595 23.4425 14.9397 23.7081 14.7004 23.7081C14.1737 23.7081 14.1737 29.3833 14.7004 29.6007C14.9158 29.6731 15.0595 30.0354 15.0595 30.4701C15.0595 30.8806 15.2031 31.267 15.3946 31.3394C15.5862 31.4119 15.8255 31.7983 15.8974 32.1847C15.9932 32.5711 16.2086 32.8851 16.4002 32.8851C16.6156 32.8851 16.7353 33.1507 16.7353 33.7303C16.7353 34.2374 16.855 34.5755 17.0465 34.5755C17.1902 34.5755 17.5732 34.648 17.8844 34.7205C18.2914 34.8412 18.4111 34.7687 18.4111 34.3824C18.4111 34.1167 18.6026 33.851 18.89 33.7786C19.2491 33.682 19.3688 33.4405 19.3688 32.9092C19.3688 32.4262 19.4884 32.1606 19.7039 32.1606C19.9193 32.1606 20.063 31.7741 20.1588 31.0256C20.2306 30.3735 20.4221 29.818 20.6616 29.6973C20.877 29.5765 21.0446 29.2626 21.0446 29.0211C21.0446 28.7554 21.2121 28.5381 21.4037 28.5381C21.667 28.5381 21.7628 28.8037 21.7628 29.5041C21.7628 30.1802 21.8586 30.4701 22.1219 30.4701C22.3135 30.4701 22.5289 30.8082 22.6247 31.3153C22.6965 31.7983 22.9119 32.1606 23.1035 32.1606C23.3189 32.1606 23.4386 32.4262 23.4386 32.9092C23.4386 33.4405 23.5823 33.682 23.8935 33.7786C24.1568 33.851 24.3963 34.1891 24.492 34.648C24.6356 35.3242 24.6835 35.3724 24.899 35.0102C25.0187 34.7687 25.2821 34.5755 25.4736 34.5755C25.6651 34.5755 25.8805 34.2133 25.9763 33.7303C26.0482 33.2714 26.2636 32.8851 26.4312 32.8851C26.5988 32.8851 26.8142 32.4986 26.8861 32.0398C26.9819 31.5327 27.1973 31.1946 27.3889 31.1946C27.6522 31.1946 27.7479 30.8806 27.7479 29.9871C27.7479 29.0694 27.8437 28.7796 28.107 28.7796C28.3943 28.7796 28.4661 28.4415 28.4661 27.0891C28.4661 25.7367 28.3943 25.3986 28.107 25.3986C27.8437 25.3986 27.7479 25.1088 27.7479 24.1911C27.7479 23.3459 27.6522 22.9354 27.3889 22.8388C27.1973 22.7663 26.9819 22.3316 26.8861 21.8727C26.8142 21.4139 26.5988 21.0516 26.4073 21.0516C26.1918 21.0516 26.0721 20.7619 26.0721 20.2064C26.0721 19.5302 25.9763 19.3612 25.5933 19.3612C25.3299 19.3612 25.1145 19.1921 25.1145 18.999C25.1145 18.7574 25.3778 18.6367 25.9524 18.6367C26.527 18.6367 26.7903 18.7574 26.7903 18.999C26.7903 19.2405 27.0536 19.3612 27.6282 19.3612C28.1789 19.3612 28.4661 19.482 28.4661 19.6993C28.4661 20.0857 29.1843 20.3272 30.3335 20.3272C30.8602 20.3272 31.0996 20.4479 31.0996 20.6894C31.0996 20.9793 31.4827 21.0516 33.1345 21.0516C34.7385 21.0516 35.2174 20.9793 35.3131 20.6894C35.4089 20.4479 35.792 20.3272 36.5102 20.3272C37.2283 20.3272 37.6114 20.2064 37.7072 19.9649C37.779 19.7717 38.2099 19.5543 38.6648 19.4578C39.1197 19.3853 39.4788 19.168 39.4788 18.9748C39.4788 18.7574 39.766 18.6367 40.3167 18.6367C40.8913 18.6367 41.1546 18.5159 41.1546 18.2744C41.1546 18.0813 41.3222 17.9122 41.5137 17.9122C41.7053 17.9122 41.8728 17.6948 41.8728 17.4292C41.8728 17.0428 41.7053 16.9462 41.1307 16.9462C40.604 16.9462 40.3646 16.8255 40.2688 16.4632C40.173 16.101 39.9337 15.9802 39.3351 15.9802C38.7606 15.9802 38.5211 15.8594 38.5211 15.6179C38.5211 15.3765 38.2818 15.2557 37.8748 15.2557C36.8453 15.2557 36.1271 14.9901 36.1271 14.6279C36.1271 14.3622 35.6004 14.2898 33.6852 14.2898C30.908 14.2898 30.142 14.4346 30.142 14.9176C30.142 15.135 29.8547 15.2557 29.3041 15.2557C28.7295 15.2557 28.4661 15.3765 28.4661 15.6179C28.4661 15.8594 28.2268 15.9802 27.724 15.9802C27.1973 15.9802 26.9579 16.101 26.8621 16.4632C26.6706 17.1636 25.3539 17.1636 25.3539 16.4632C25.3539 16.1975 25.5215 15.9802 25.713 15.9802C25.9045 15.9802 26.0721 15.7629 26.0721 15.4972C26.0721 15.2316 26.2157 15.0142 26.4073 15.0142C26.5988 15.0142 26.7664 14.6279 26.8621 13.9999C26.934 13.4445 27.1733 12.9132 27.3649 12.7925C27.6761 12.5992 27.7479 12.0438 27.7479 9.38733C27.7479 5.90977 27.6282 5.11283 27.1254 5.11283C26.91 5.11283 26.7903 4.82303 26.7903 4.26759C26.7903 3.71214 26.6706 3.42235 26.4552 3.42235C26.2636 3.42235 26.0482 3.0601 25.9763 2.57711C25.8805 2.06996 25.6651 1.73186 25.4736 1.73186C25.2821 1.73186 25.1145 1.51452 25.1145 1.24887C25.1145 0.983217 24.9947 0.765869 24.8512 0.765869C24.3244 0.765869 23.4386 1.85261 23.4386 2.50465C23.4386 2.93935 23.3189 3.18085 23.0795 3.18085C22.8162 3.18085 22.7204 3.44649 22.7204 4.05024C22.7204 4.70229 22.6007 4.94378 22.2416 5.04038C21.8346 5.16112 21.7628 5.37847 21.7628 6.46521C21.7628 7.45535 21.667 7.76932 21.4037 7.76932C21.2121 7.76932 21.0446 7.55195 21.0446 7.2863C21.0446 7.02066 20.9009 6.80331 20.7094 6.80331C20.3263 6.80331 20.087 6.07882 20.087 4.91963C20.087 4.38833 19.9672 4.14684 19.7279 4.14684C19.4884 4.14684 19.3688 3.90534 19.3688 3.3982C19.3688 2.8669 19.2491 2.6254 18.89 2.5288C18.5309 2.4322 18.4111 2.1907 18.4111 1.58696C18.4111 0.81417 18.3632 0.765869 17.5732 0.765869C16.9029 0.765869 16.7353 0.862472 16.7353 1.24887ZM17.6929 3.78459C17.6929 3.97779 17.8365 4.14684 18.0281 4.14684C18.2196 4.14684 18.4351 4.50908 18.5069 4.96793C18.6026 5.42677 18.8181 5.86147 19.0096 5.93392C19.2969 6.03052 19.3688 6.68256 19.3688 9.31487C19.3688 12.3336 19.3448 12.551 18.89 12.6717C18.5548 12.7683 18.4111 13.0098 18.4111 13.5169C18.4111 14.0965 18.2914 14.2656 17.8126 14.3864C16.9747 14.6037 16.7353 14.4105 16.7353 13.5411C16.7353 13.1064 16.6156 12.8407 16.4002 12.8407C16.2086 12.8407 16.0171 12.4544 15.9213 11.8989C15.8495 11.3676 15.6579 10.9088 15.5143 10.8605C15.3467 10.8122 15.1792 10.136 15.1074 9.339C15.0116 8.17988 15.0595 7.86591 15.4186 7.62441C15.6579 7.43121 15.8734 6.87576 15.9453 6.22371C16.041 5.49923 16.1846 5.11283 16.4002 5.11283C16.6156 5.11283 16.7353 4.82303 16.7353 4.26759C16.7353 3.59139 16.8311 3.42235 17.2141 3.42235C17.4774 3.42235 17.6929 3.59139 17.6929 3.78459ZM25.1145 4.17099C25.1145 4.70229 25.2342 4.94378 25.5933 5.04038C26.0003 5.13697 26.0721 5.37847 26.0721 6.34447C26.0721 7.238 26.1679 7.5278 26.4312 7.5278C26.7185 7.5278 26.7903 7.86591 26.7903 9.21829C26.7903 10.5707 26.7185 10.9088 26.4312 10.9088C26.1918 10.9088 26.0721 11.1503 26.0721 11.6815C26.0721 12.8407 25.8327 13.5652 25.4496 13.5652C25.2581 13.5652 25.1145 13.7826 25.1145 14.0483C25.1145 14.3139 24.9468 14.5312 24.7554 14.5312C24.5638 14.5312 24.3963 14.338 24.3963 14.0724C24.3963 13.8309 24.1808 13.5652 23.9175 13.4928C23.5584 13.3962 23.4386 13.1547 23.4386 12.6234C23.4386 12.1163 23.3189 11.8748 23.0795 11.8748C22.7922 11.8748 22.7204 11.4401 22.7204 9.339C22.7204 7.35876 22.7922 6.80331 23.0556 6.80331C23.271 6.80331 23.4147 6.41691 23.5105 5.66827C23.5823 5.01623 23.7738 4.46079 24.0132 4.34003C24.2287 4.21929 24.3963 3.95364 24.3963 3.78459C24.3963 3.59139 24.5638 3.42235 24.7554 3.42235C24.9947 3.42235 25.1145 3.66384 25.1145 4.17099ZM21.8346 12.0438C21.9065 12.6959 22.0979 13.2513 22.3374 13.3721C22.5528 13.4928 22.7204 13.9033 22.7204 14.2898C22.7204 14.7727 22.8401 15.0142 23.0795 15.0142C23.271 15.0142 23.4386 15.2316 23.4386 15.4972C23.4386 15.7629 23.6062 15.9802 23.7977 15.9802C23.9893 15.9802 24.2047 16.3183 24.3005 16.8496C24.3963 17.3085 24.6117 17.7673 24.7793 17.8398C25.2342 18.0088 25.2103 18.3952 24.7554 18.3952C24.5638 18.3952 24.3963 18.5884 24.3963 18.854C24.3963 19.0955 24.1808 19.3612 23.9175 19.4336C23.5584 19.5302 23.4386 19.7717 23.4386 20.303C23.4386 20.8102 23.3189 21.0516 23.0795 21.0516C22.8401 21.0516 22.7204 21.3174 22.7204 21.8969C22.7204 22.4523 22.6007 22.7422 22.3852 22.7422C22.0022 22.7422 21.7628 23.4666 21.7628 24.6017C21.7628 25.6884 21.1403 25.6401 20.9488 24.5534C20.853 24.0462 20.6376 23.7081 20.4461 23.7081C20.2067 23.7081 20.087 23.4425 20.087 22.8629C20.087 22.2833 19.9672 22.0177 19.7279 22.0177C19.4884 22.0177 19.3688 21.752 19.3688 21.1724C19.3688 20.5928 19.2491 20.3272 19.0096 20.3272C18.8181 20.3272 18.6026 19.9891 18.5069 19.482C18.4351 19.0231 18.2196 18.6367 18.0281 18.6367C17.8605 18.6367 17.669 18.5401 17.5732 18.3952C17.3577 18.0329 17.7169 16.9462 18.076 16.9462C18.2675 16.9462 18.4111 16.7289 18.4111 16.4632C18.4111 16.1975 18.5787 15.9802 18.7702 15.9802C18.9618 15.9802 19.1772 15.6421 19.273 15.135C19.3448 14.6761 19.5603 14.2898 19.7279 14.2898C19.8954 14.2898 20.063 13.8309 20.1588 13.1547C20.2306 12.5026 20.4221 11.9472 20.6616 11.8264C20.877 11.7057 21.0446 11.4401 21.0446 11.2711C21.0446 11.0778 21.1882 10.9088 21.3798 10.9088C21.5952 10.9088 21.7389 11.2952 21.8346 12.0438ZM9.07431 15.6179C9.07431 15.9078 9.38554 15.9802 10.3911 15.9802C11.3487 15.9802 11.7078 16.0768 11.7078 16.3183C11.7078 16.6806 12.426 16.9462 13.4555 16.9462C13.8146 16.9462 14.1018 17.0186 14.1018 17.1152C14.1018 17.236 14.1737 17.55 14.2455 17.8398C14.3652 18.3228 14.2694 18.3952 13.4076 18.5401C12.8569 18.6367 12.426 18.8299 12.426 18.999C12.426 19.1921 11.9232 19.337 10.9417 19.4095C10.1038 19.482 9.40952 19.651 9.36163 19.7959C9.24187 20.1581 7.70972 20.1823 7.59001 19.8442C7.54213 19.6993 6.94362 19.5302 6.24934 19.4336C5.43537 19.337 5.00444 19.1921 5.00444 18.9748C5.00444 18.7574 4.71715 18.6367 4.16652 18.6367C3.37648 18.6367 3.32861 18.5884 3.32861 17.7914C3.32861 16.9945 3.37648 16.9462 4.16652 16.9462C4.66927 16.9462 5.05232 16.8013 5.19596 16.5598C5.31566 16.3183 5.86629 16.1252 6.51269 16.0527C7.25485 15.9561 7.63786 15.8112 7.63786 15.5938C7.63786 15.3765 7.90127 15.2557 8.35608 15.2557C8.83495 15.2557 9.07431 15.3765 9.07431 15.6179ZM34.4513 15.6179C34.4513 15.8836 34.7385 15.9802 35.6483 15.9802C36.558 15.9802 36.8453 16.0768 36.8453 16.3425C36.8453 16.584 37.1805 16.753 37.8269 16.8496C38.7366 16.9945 38.7845 17.067 38.6409 17.6466C38.4254 18.4677 38.4732 18.4435 37.2044 18.5643C36.5102 18.6609 36.1271 18.8058 36.1271 19.0231C36.1271 19.2887 35.5046 19.3612 33.1345 19.3612C30.6447 19.3612 30.142 19.3129 30.142 18.999C30.142 18.7574 29.8787 18.6367 29.3041 18.6367C28.7295 18.6367 28.4661 18.5159 28.4661 18.2744C28.4661 18.0813 28.2985 17.9122 28.107 17.9122C27.9155 17.9122 27.7479 17.6948 27.7479 17.4292C27.7479 17.0428 27.9155 16.9462 28.5859 16.9462C29.1365 16.9462 29.4238 16.8255 29.4238 16.6081C29.4238 16.2217 30.142 15.9802 31.2911 15.9802C31.8178 15.9802 32.0572 15.8594 32.0572 15.6179C32.0572 15.3523 32.3445 15.2557 33.2543 15.2557C34.164 15.2557 34.4513 15.3523 34.4513 15.6179ZM18.4111 21.8003C18.4111 22.2108 18.6266 22.8146 18.89 23.1527C19.2251 23.5874 19.3688 24.1428 19.3688 24.9398C19.3688 25.8334 19.4645 26.1231 19.7279 26.1231C19.9672 26.1231 20.087 26.3888 20.087 26.9684C20.087 27.548 19.9672 27.8136 19.7279 27.8136C19.4645 27.8136 19.3688 28.1034 19.3688 29.0211C19.3688 29.8664 19.273 30.2769 19.0096 30.3735C18.8181 30.446 18.6026 30.8806 18.5069 31.3636C18.3632 32.1123 18.2914 32.1847 17.5972 32.1123C16.9747 32.0398 16.8311 31.919 16.7832 31.3153C16.7353 30.9289 16.5437 30.4942 16.3762 30.3493C16.2086 30.2286 16.0171 29.6248 15.9453 29.0211C15.8734 28.4415 15.6819 27.9102 15.5622 27.8619C15.227 27.7411 15.227 26.1956 15.5622 26.0748C15.7058 26.0265 15.8734 25.4711 15.9453 24.8432C16.041 24.0946 16.1846 23.7081 16.4002 23.7081C16.6156 23.7081 16.7353 23.4425 16.7353 23.0319C16.7353 21.9935 16.9986 21.3174 17.4295 21.2207C18.2675 20.9793 18.4111 21.0516 18.4111 21.8003ZM25.1145 21.5347C25.1145 21.8003 25.2581 22.0177 25.4496 22.0177C25.8087 22.0177 26.0721 22.7422 26.0721 23.7565C26.0721 24.1911 26.1918 24.4327 26.4312 24.4327C26.7185 24.4327 26.7903 24.8673 26.7903 26.9684C26.7903 28.9487 26.7185 29.5041 26.4552 29.5041C26.2396 29.5041 26.0961 29.8905 26.0003 30.615C25.8805 31.75 25.5693 32.1606 24.8272 32.1606C24.5638 32.1606 24.3963 31.9674 24.3963 31.6775C24.3963 31.4119 24.2526 31.1946 24.0611 31.1946C23.7019 31.1946 23.4386 30.4701 23.4386 29.4317C23.4386 29.0211 23.3189 28.7796 23.0795 28.7796C22.7922 28.7796 22.7204 28.3932 22.7204 26.7269C22.7204 25.0605 22.7922 24.6742 23.0795 24.6742C23.3429 24.6742 23.4386 24.4084 23.4386 23.7081C23.4386 23.0319 23.5344 22.7422 23.7977 22.7422C23.9893 22.7422 24.2047 22.4041 24.3005 21.8969C24.4681 21.0034 25.1145 20.7135 25.1145 21.5347Z" fill="#F5841F"/>
<mask id="mask0_1_37" style="mask-type:luminance" maskUnits="userSpaceOnUse" x="0" y="0" width="43" height="36">
<path d="M42.6337 0H0V36H42.6337V0Z" fill="white"/>
<path d="M16.7353 1.24887C16.7353 1.51452 16.5677 1.73186 16.3762 1.73186C16.1367 1.73186 16.0171 1.99751 16.0171 2.57711C16.0171 3.13255 15.8974 3.42235 15.6819 3.42235C15.3228 3.42235 15.0595 4.14684 15.0595 5.16112C15.0595 5.57167 14.9397 5.83732 14.7243 5.83732C14.5088 5.83732 14.3652 6.39276 14.2455 7.84178C14.0539 10.3292 14.2694 12.5992 14.7243 12.5992C14.9397 12.5992 15.0595 12.8891 15.0595 13.4203C15.0595 14.0241 15.1792 14.2656 15.5383 14.3622C15.8974 14.4588 16.0171 14.7003 16.0171 15.2316C16.0171 15.7387 16.1367 15.9802 16.3762 15.9802C16.5677 15.9802 16.7353 16.1975 16.7353 16.4632C16.7353 16.8496 16.5677 16.9462 15.9932 16.9462C15.4665 16.9462 15.227 16.8255 15.1313 16.4632C15.0355 16.101 14.7961 15.9802 14.1976 15.9802C13.623 15.9802 13.3836 15.8594 13.3836 15.6179C13.3836 15.3765 13.1203 15.2557 12.5457 15.2557C11.9951 15.2557 11.7078 15.135 11.7078 14.9176C11.7078 14.4346 10.9417 14.2898 8.3082 14.2898C6.39299 14.2898 5.96206 14.3622 5.96206 14.652C5.96206 14.8935 5.62689 15.0625 5.00444 15.1591C4.42986 15.2557 4.04682 15.4489 4.04682 15.6421C4.04682 15.8594 3.78347 15.9802 3.37648 15.9802C3.01738 15.9802 2.53856 16.1975 2.29916 16.4632C2.08369 16.7289 1.70065 16.9462 1.4373 16.9462C1.15001 16.9462 0.934553 17.1636 0.838787 17.55C0.647265 18.2744 0.814851 18.6367 1.3176 18.6367C1.50913 18.6367 1.65276 18.8058 1.65276 18.999C1.65276 19.2405 1.89217 19.3612 2.46674 19.3612C3.06526 19.3612 3.30466 19.482 3.40042 19.8442C3.49619 20.2306 3.73559 20.3272 4.62139 20.3272C5.43537 20.3272 5.72265 20.4238 5.72265 20.6894C5.72265 21.0034 6.2254 21.0516 8.7152 21.0516C11.205 21.0516 11.7078 21.0034 11.7078 20.6894C11.7078 20.4479 11.9472 20.3272 12.4978 20.3272C12.9766 20.3272 13.4315 20.1339 13.6948 19.8442C13.9103 19.5786 14.3652 19.3612 14.7004 19.3612C15.0834 19.3612 15.2988 19.2163 15.2988 18.999C15.2988 18.7574 15.5383 18.6367 16.0171 18.6367C16.6874 18.6367 16.7353 18.7091 16.7353 19.482C16.7353 20.0374 16.6156 20.3272 16.4002 20.3272C16.2086 20.3272 15.9932 20.6894 15.9213 21.1724C15.8255 21.6796 15.6101 22.0177 15.4186 22.0177C15.1792 22.0177 15.0595 22.2833 15.0595 22.8629C15.0595 23.4425 14.9397 23.7081 14.7004 23.7081C14.1737 23.7081 14.1737 29.3833 14.7004 29.6007C14.9158 29.6731 15.0595 30.0354 15.0595 30.4701C15.0595 30.8806 15.2031 31.267 15.3946 31.3394C15.5862 31.4119 15.8255 31.7983 15.8974 32.1847C15.9932 32.5711 16.2086 32.8851 16.4002 32.8851C16.6156 32.8851 16.7353 33.1507 16.7353 33.7303C16.7353 34.2374 16.855 34.5755 17.0465 34.5755C17.1902 34.5755 17.5732 34.648 17.8844 34.7205C18.2914 34.8412 18.4111 34.7687 18.4111 34.3824C18.4111 34.1167 18.6026 33.851 18.89 33.7786C19.2491 33.682 19.3688 33.4405 19.3688 32.9092C19.3688 32.4262 19.4884 32.1606 19.7039 32.1606C19.9193 32.1606 20.063 31.7741 20.1588 31.0256C20.2306 30.3735 20.4221 29.818 20.6616 29.6973C20.877 29.5765 21.0446 29.2626 21.0446 29.0211C21.0446 28.7554 21.2121 28.5381 21.4037 28.5381C21.667 28.5381 21.7628 28.8037 21.7628 29.5041C21.7628 30.1802 21.8586 30.4701 22.1219 30.4701C22.3135 30.4701 22.5289 30.8082 22.6247 31.3153C22.6965 31.7983 22.9119 32.1606 23.1035 32.1606C23.3189 32.1606 23.4386 32.4262 23.4386 32.9092C23.4386 33.4405 23.5823 33.682 23.8935 33.7786C24.1568 33.851 24.3963 34.1891 24.492 34.648C24.6356 35.3242 24.6835 35.3724 24.899 35.0102C25.0187 34.7687 25.2821 34.5755 25.4736 34.5755C25.6651 34.5755 25.8805 34.2133 25.9763 33.7303C26.0482 33.2714 26.2636 32.8851 26.4312 32.8851C26.5988 32.8851 26.8142 32.4986 26.8861 32.0398C26.9819 31.5327 27.1973 31.1946 27.3889 31.1946C27.6522 31.1946 27.7479 30.8806 27.7479 29.9871C27.7479 29.0694 27.8437 28.7796 28.107 28.7796C28.3943 28.7796 28.4661 28.4415 28.4661 27.0891C28.4661 25.7367 28.3943 25.3986 28.107 25.3986C27.8437 25.3986 27.7479 25.1088 27.7479 24.1911C27.7479 23.3459 27.6522 22.9354 27.3889 22.8388C27.1973 22.7663 26.9819 22.3316 26.8861 21.8727C26.8142 21.4139 26.5988 21.0516 26.4073 21.0516C26.1918 21.0516 26.0721 20.7619 26.0721 20.2064C26.0721 19.5302 25.9763 19.3612 25.5933 19.3612C25.3299 19.3612 25.1145 19.1921 25.1145 18.999C25.1145 18.7574 25.3778 18.6367 25.9524 18.6367C26.527 18.6367 26.7903 18.7574 26.7903 18.999C26.7903 19.2405 27.0536 19.3612 27.6282 19.3612C28.1789 19.3612 28.4661 19.482 28.4661 19.6993C28.4661 20.0857 29.1843 20.3272 30.3335 20.3272C30.8602 20.3272 31.0996 20.4479 31.0996 20.6894C31.0996 20.9793 31.4827 21.0516 33.1345 21.0516C34.7385 21.0516 35.2174 20.9793 35.3131 20.6894C35.4089 20.4479 35.792 20.3272 36.5102 20.3272C37.2283 20.3272 37.6114 20.2064 37.7072 19.9649C37.779 19.7717 38.2099 19.5543 38.6648 19.4578C39.1197 19.3853 39.4788 19.168 39.4788 18.9748C39.4788 18.7574 39.766 18.6367 40.3167 18.6367C40.8913 18.6367 41.1546 18.5159 41.1546 18.2744C41.1546 18.0813 41.3222 17.9122 41.5137 17.9122C41.7053 17.9122 41.8728 17.6948 41.8728 17.4292C41.8728 17.0428 41.7053 16.9462 41.1307 16.9462C40.604 16.9462 40.3646 16.8255 40.2688 16.4632C40.173 16.101 39.9337 15.9802 39.3351 15.9802C38.7606 15.9802 38.5211 15.8594 38.5211 15.6179C38.5211 15.3765 38.2818 15.2557 37.8748 15.2557C36.8453 15.2557 36.1271 14.9901 36.1271 14.6279C36.1271 14.3622 35.6004 14.2898 33.6852 14.2898C30.908 14.2898 30.142 14.4346 30.142 14.9176C30.142 15.135 29.8547 15.2557 29.3041 15.2557C28.7295 15.2557 28.4661 15.3765 28.4661 15.6179C28.4661 15.8594 28.2268 15.9802 27.724 15.9802C27.1973 15.9802 26.9579 16.101 26.8621 16.4632C26.6706 17.1636 25.3539 17.1636 25.3539 16.4632C25.3539 16.1975 25.5215 15.9802 25.713 15.9802C25.9045 15.9802 26.0721 15.7629 26.0721 15.4972C26.0721 15.2316 26.2157 15.0142 26.4073 15.0142C26.5988 15.0142 26.7664 14.6279 26.8621 13.9999C26.934 13.4445 27.1733 12.9132 27.3649 12.7925C27.6761 12.5992 27.7479 12.0438 27.7479 9.38733C27.7479 5.90977 27.6282 5.11283 27.1254 5.11283C26.91 5.11283 26.7903 4.82303 26.7903 4.26759C26.7903 3.71214 26.6706 3.42235 26.4552 3.42235C26.2636 3.42235 26.0482 3.0601 25.9763 2.57711C25.8805 2.06996 25.6651 1.73186 25.4736 1.73186C25.2821 1.73186 25.1145 1.51452 25.1145 1.24887C25.1145 0.983217 24.9947 0.765869 24.8512 0.765869C24.3244 0.765869 23.4386 1.85261 23.4386 2.50465C23.4386 2.93935 23.3189 3.18085 23.0795 3.18085C22.8162 3.18085 22.7204 3.44649 22.7204 4.05024C22.7204 4.70229 22.6007 4.94378 22.2416 5.04038C21.8346 5.16112 21.7628 5.37847 21.7628 6.46521C21.7628 7.45535 21.667 7.76932 21.4037 7.76932C21.2121 7.76932 21.0446 7.55195 21.0446 7.2863C21.0446 7.02066 20.9009 6.80331 20.7094 6.80331C20.3263 6.80331 20.087 6.07882 20.087 4.91963C20.087 4.38833 19.9672 4.14684 19.7279 4.14684C19.4884 4.14684 19.3688 3.90534 19.3688 3.3982C19.3688 2.8669 19.2491 2.6254 18.89 2.5288C18.5309 2.4322 18.4111 2.1907 18.4111 1.58696C18.4111 0.81417 18.3632 0.765869 17.5732 0.765869C16.9029 0.765869 16.7353 0.862472 16.7353 1.24887ZM17.6929 3.78459C17.6929 3.97779 17.8365 4.14684 18.0281 4.14684C18.2196 4.14684 18.4351 4.50908 18.5069 4.96793C18.6026 5.42677 18.8181 5.86147 19.0096 5.93392C19.2969 6.03052 19.3688 6.68256 19.3688 9.31487C19.3688 12.3336 19.3448 12.551 18.89 12.6717C18.5548 12.7683 18.4111 13.0098 18.4111 13.5169C18.4111 14.0965 18.2914 14.2656 17.8126 14.3864C16.9747 14.6037 16.7353 14.4105 16.7353 13.5411C16.7353 13.1064 16.6156 12.8407 16.4002 12.8407C16.2086 12.8407 16.0171 12.4544 15.9213 11.8989C15.8495 11.3676 15.6579 10.9088 15.5143 10.8605C15.3467 10.8122 15.1792 10.136 15.1074 9.339C15.0116 8.17988 15.0595 7.86591 15.4186 7.62441C15.6579 7.43121 15.8734 6.87576 15.9453 6.22371C16.041 5.49923 16.1846 5.11283 16.4002 5.11283C16.6156 5.11283 16.7353 4.82303 16.7353 4.26759C16.7353 3.59139 16.8311 3.42235 17.2141 3.42235C17.4774 3.42235 17.6929 3.59139 17.6929 3.78459ZM25.1145 4.17099C25.1145 4.70229 25.2342 4.94378 25.5933 5.04038C26.0003 5.13697 26.0721 5.37847 26.0721 6.34447C26.0721 7.238 26.1679 7.5278 26.4312 7.5278C26.7185 7.5278 26.7903 7.86591 26.7903 9.21829C26.7903 10.5707 26.7185 10.9088 26.4312 10.9088C26.1918 10.9088 26.0721 11.1503 26.0721 11.6815C26.0721 12.8407 25.8327 13.5652 25.4496 13.5652C25.2581 13.5652 25.1145 13.7826 25.1145 14.0483C25.1145 14.3139 24.9468 14.5312 24.7554 14.5312C24.5638 14.5312 24.3963 14.338 24.3963 14.0724C24.3963 13.8309 24.1808 13.5652 23.9175 13.4928C23.5584 13.3962 23.4386 13.1547 23.4386 12.6234C23.4386 12.1163 23.3189 11.8748 23.0795 11.8748C22.7922 11.8748 22.7204 11.4401 22.7204 9.339C22.7204 7.35876 22.7922 6.80331 23.0556 6.80331C23.271 6.80331 23.4147 6.41691 23.5105 5.66827C23.5823 5.01623 23.7738 4.46079 24.0132 4.34003C24.2287 4.21929 24.3963 3.95364 24.3963 3.78459C24.3963 3.59139 24.5638 3.42235 24.7554 3.42235C24.9947 3.42235 25.1145 3.66384 25.1145 4.17099ZM21.8346 12.0438C21.9065 12.6959 22.0979 13.2513 22.3374 13.3721C22.5528 13.4928 22.7204 13.9033 22.7204 14.2898C22.7204 14.7727 22.8401 15.0142 23.0795 15.0142C23.271 15.0142 23.4386 15.2316 23.4386 15.4972C23.4386 15.7629 23.6062 15.9802 23.7977 15.9802C23.9893 15.9802 24.2047 16.3183 24.3005 16.8496C24.3963 17.3085 24.6117 17.7673 24.7793 17.8398C25.2342 18.0088 25.2103 18.3952 24.7554 18.3952C24.5638 18.3952 24.3963 18.5884 24.3963 18.854C24.3963 19.0955 24.1808 19.3612 23.9175 19.4336C23.5584 19.5302 23.4386 19.7717 23.4386 20.303C23.4386 20.8102 23.3189 21.0516 23.0795 21.0516C22.8401 21.0516 22.7204 21.3174 22.7204 21.8969C22.7204 22.4523 22.6007 22.7422 22.3852 22.7422C22.0022 22.7422 21.7628 23.4666 21.7628 24.6017C21.7628 25.6884 21.1403 25.6401 20.9488 24.5534C20.853 24.0462 20.6376 23.7081 20.4461 23.7081C20.2067 23.7081 20.087 23.4425 20.087 22.8629C20.087 22.2833 19.9672 22.0177 19.7279 22.0177C19.4884 22.0177 19.3688 21.752 19.3688 21.1724C19.3688 20.5928 19.2491 20.3272 19.0096 20.3272C18.8181 20.3272 18.6026 19.9891 18.5069 19.482C18.4351 19.0231 18.2196 18.6367 18.0281 18.6367C17.8605 18.6367 17.669 18.5401 17.5732 18.3952C17.3577 18.0329 17.7169 16.9462 18.076 16.9462C18.2675 16.9462 18.4111 16.7289 18.4111 16.4632C18.4111 16.1975 18.5787 15.9802 18.7702 15.9802C18.9618 15.9802 19.1772 15.6421 19.273 15.135C19.3448 14.6761 19.5603 14.2898 19.7279 14.2898C19.8954 14.2898 20.063 13.8309 20.1588 13.1547C20.2306 12.5026 20.4221 11.9472 20.6616 11.8264C20.877 11.7057 21.0446 11.4401 21.0446 11.2711C21.0446 11.0778 21.1882 10.9088 21.3798 10.9088C21.5952 10.9088 21.7389 11.2952 21.8346 12.0438ZM9.07431 15.6179C9.07431 15.9078 9.38554 15.9802 10.3911 15.9802C11.3487 15.9802 11.7078 16.0768 11.7078 16.3183C11.7078 16.6806 12.426 16.9462 13.4555 16.9462C13.8146 16.9462 14.1018 17.0186 14.1018 17.1152C14.1018 17.236 14.1737 17.55 14.2455 17.8398C14.3652 18.3228 14.2694 18.3952 13.4076 18.5401C12.8569 18.6367 12.426 18.8299 12.426 18.999C12.426 19.1921 11.9232 19.337 10.9417 19.4095C10.1038 19.482 9.40952 19.651 9.36163 19.7959C9.24187 20.1581 7.70972 20.1823 7.59001 19.8442C7.54213 19.6993 6.94362 19.5302 6.24934 19.4336C5.43537 19.337 5.00444 19.1921 5.00444 18.9748C5.00444 18.7574 4.71715 18.6367 4.16652 18.6367C3.37648 18.6367 3.32861 18.5884 3.32861 17.7914C3.32861 16.9945 3.37648 16.9462 4.16652 16.9462C4.66927 16.9462 5.05232 16.8013 5.19596 16.5598C5.31566 16.3183 5.86629 16.1252 6.51269 16.0527C7.25485 15.9561 7.63786 15.8112 7.63786 15.5938C7.63786 15.3765 7.90127 15.2557 8.35608 15.2557C8.83495 15.2557 9.07431 15.3765 9.07431 15.6179ZM34.4513 15.6179C34.4513 15.8836 34.7385 15.9802 35.6483 15.9802C36.558 15.9802 36.8453 16.0768 36.8453 16.3425C36.8453 16.584 37.1805 16.753 37.8269 16.8496C38.7366 16.9945 38.7845 17.067 38.6409 17.6466C38.4254 18.4677 38.4732 18.4435 37.2044 18.5643C36.5102 18.6609 36.1271 18.8058 36.1271 19.0231C36.1271 19.2887 35.5046 19.3612 33.1345 19.3612C30.6447 19.3612 30.142 19.3129 30.142 18.999C30.142 18.7574 29.8787 18.6367 29.3041 18.6367C28.7295 18.6367 28.4661 18.5159 28.4661 18.2744C28.4661 18.0813 28.2985 17.9122 28.107 17.9122C27.9155 17.9122 27.7479 17.6948 27.7479 17.4292C27.7479 17.0428 27.9155 16.9462 28.5859 16.9462C29.1365 16.9462 29.4238 16.8255 29.4238 16.6081C29.4238 16.2217 30.142 15.9802 31.2911 15.9802C31.8178 15.9802 32.0572 15.8594 32.0572 15.6179C32.0572 15.3523 32.3445 15.2557 33.2543 15.2557C34.164 15.2557 34.4513 15.3523 34.4513 15.6179ZM18.4111 21.8003C18.4111 22.2108 18.6266 22.8146 18.89 23.1527C19.2251 23.5874 19.3688 24.1428 19.3688 24.9398C19.3688 25.8334 19.4645 26.1231 19.7279 26.1231C19.9672 26.1231 20.087 26.3888 20.087 26.9684C20.087 27.548 19.9672 27.8136 19.7279 27.8136C19.4645 27.8136 19.3688 28.1034 19.3688 29.0211C19.3688 29.8664 19.273 30.2769 19.0096 30.3735C18.8181 30.446 18.6026 30.8806 18.5069 31.3636C18.3632 32.1123 18.2914 32.1847 17.5972 32.1123C16.9747 32.0398 16.8311 31.919 16.7832 31.3153C16.7353 30.9289 16.5437 30.4942 16.3762 30.3493C16.2086 30.2286 16.0171 29.6248 15.9453 29.0211C15.8734 28.4415 15.6819 27.9102 15.5622 27.8619C15.227 27.7411 15.227 26.1956 15.5622 26.0748C15.7058 26.0265 15.8734 25.4711 15.9453 24.8432C16.041 24.0946 16.1846 23.7081 16.4002 23.7081C16.6156 23.7081 16.7353 23.4425 16.7353 23.0319C16.7353 21.9935 16.9986 21.3174 17.4295 21.2207C18.2675 20.9793 18.4111 21.0516 18.4111 21.8003ZM25.1145 21.5347C25.1145 21.8003 25.2581 22.0177 25.4496 22.0177C25.8087 22.0177 26.0721 22.7422 26.0721 23.7565C26.0721 24.1911 26.1918 24.4327 26.4312 24.4327C26.7185 24.4327 26.7903 24.8673 26.7903 26.9684C26.7903 28.9487 26.7185 29.5041 26.4552 29.5041C26.2396 29.5041 26.0961 29.8905 26.0003 30.615C25.8805 31.75 25.5693 32.1606 24.8272 32.1606C24.5638 32.1606 24.3963 31.9674 24.3963 31.6775C24.3963 31.4119 24.2526 31.1946 24.0611 31.1946C23.7019 31.1946 23.4386 30.4701 23.4386 29.4317C23.4386 29.0211 23.3189 28.7796 23.0795 28.7796C22.7922 28.7796 22.7204 28.3932 22.7204 26.7269C22.7204 25.0605 22.7922 24.6742 23.0795 24.6742C23.3429 24.6742 23.4386 24.4084 23.4386 23.7081C23.4386 23.0319 23.5344 22.7422 23.7977 22.7422C23.9893 22.7422 24.2047 22.4041 24.3005 21.8969C24.4681 21.0034 25.1145 20.7135 25.1145 21.5347Z" fill="black"/>
</mask>
<g mask="url(#mask0_1_37)">
<path d="M16.7353 1.24887C16.7353 1.51452 16.5677 1.73186 16.3762 1.73186C16.1367 1.73186 16.0171 1.99751 16.0171 2.57711C16.0171 3.13255 15.8974 3.42235 15.6819 3.42235C15.3228 3.42235 15.0595 4.14684 15.0595 5.16112C15.0595 5.57167 14.9397 5.83732 14.7243 5.83732C14.5088 5.83732 14.3652 6.39276 14.2455 7.84178C14.0539 10.3292 14.2694 12.5992 14.7243 12.5992C14.9397 12.5992 15.0595 12.8891 15.0595 13.4203C15.0595 14.0241 15.1792 14.2656 15.5383 14.3622C15.8974 14.4588 16.0171 14.7003 16.0171 15.2316C16.0171 15.7387 16.1367 15.9802 16.3762 15.9802C16.5677 15.9802 16.7353 16.1975 16.7353 16.4632C16.7353 16.8496 16.5677 16.9462 15.9932 16.9462C15.4665 16.9462 15.227 16.8255 15.1313 16.4632C15.0355 16.1009 14.7961 15.9802 14.1976 15.9802C13.623 15.9802 13.3836 15.8594 13.3836 15.6179C13.3836 15.3765 13.1203 15.2557 12.5457 15.2557C11.9951 15.2557 11.7078 15.135 11.7078 14.9176C11.7078 14.4346 10.9417 14.2898 8.3082 14.2898C6.39299 14.2898 5.96206 14.3622 5.96206 14.652C5.96206 14.8935 5.62689 15.0625 5.00444 15.1591C4.42986 15.2557 4.04682 15.4489 4.04682 15.6421C4.04682 15.8594 3.78347 15.9802 3.37648 15.9802C3.01738 15.9802 2.53856 16.1975 2.29916 16.4632C2.08369 16.7289 1.70065 16.9462 1.4373 16.9462C1.15001 16.9462 0.934553 17.1636 0.838787 17.55C0.647265 18.2744 0.814851 18.6367 1.3176 18.6367C1.50913 18.6367 1.65276 18.8058 1.65276 18.999C1.65276 19.2405 1.89217 19.3612 2.46674 19.3612C3.06526 19.3612 3.30466 19.482 3.40042 19.8442C3.49619 20.2306 3.73559 20.3272 4.62139 20.3272C5.43537 20.3272 5.72265 20.4238 5.72265 20.6894C5.72265 21.0034 6.2254 21.0516 8.7152 21.0516C11.205 21.0516 11.7078 21.0034 11.7078 20.6894C11.7078 20.4479 11.9472 20.3272 12.4978 20.3272C12.9766 20.3272 13.4315 20.1339 13.6948 19.8442C13.9103 19.5786 14.3652 19.3612 14.7004 19.3612C15.0834 19.3612 15.2988 19.2163 15.2988 18.999C15.2988 18.7574 15.5383 18.6367 16.0171 18.6367C16.6874 18.6367 16.7353 18.7091 16.7353 19.482C16.7353 20.0374 16.6156 20.3272 16.4002 20.3272C16.2086 20.3272 15.9932 20.6894 15.9213 21.1724C15.8255 21.6796 15.6101 22.0177 15.4186 22.0177C15.1792 22.0177 15.0595 22.2833 15.0595 22.8629C15.0595 23.4425 14.9397 23.7081 14.7004 23.7081C14.1737 23.7081 14.1737 29.3833 14.7004 29.6007C14.9158 29.6731 15.0595 30.0354 15.0595 30.4701C15.0595 30.8806 15.2031 31.267 15.3946 31.3394C15.5862 31.4119 15.8255 31.7983 15.8974 32.1847C15.9932 32.5711 16.2086 32.8851 16.4002 32.8851C16.6156 32.8851 16.7353 33.1507 16.7353 33.7303C16.7353 34.2374 16.855 34.5755 17.0465 34.5755C17.1902 34.5755 17.5732 34.648 17.8844 34.7205C18.2914 34.8412 18.4111 34.7687 18.4111 34.3824C18.4111 34.1167 18.6026 33.851 18.89 33.7786C19.2491 33.682 19.3688 33.4405 19.3688 32.9092C19.3688 32.4262 19.4884 32.1606 19.7039 32.1606C19.9193 32.1606 20.063 31.7741 20.1588 31.0256C20.2306 30.3735 20.4221 29.818 20.6616 29.6973C20.877 29.5765 21.0446 29.2626 21.0446 29.0211C21.0446 28.7554 21.2121 28.5381 21.4037 28.5381C21.667 28.5381 21.7628 28.8037 21.7628 29.5041C21.7628 30.1802 21.8586 30.4701 22.1219 30.4701C22.3135 30.4701 22.5289 30.8082 22.6247 31.3153C22.6965 31.7983 22.9119 32.1606 23.1035 32.1606C23.3189 32.1606 23.4386 32.4262 23.4386 32.9092C23.4386 33.4405 23.5823 33.682 23.8935 33.7786C24.1568 33.851 24.3963 34.1891 24.492 34.648C24.6356 35.3242 24.6835 35.3724 24.899 35.0102C25.0187 34.7687 25.2821 34.5755 25.4736 34.5755C25.6651 34.5755 25.8805 34.2133 25.9763 33.7303C26.0482 33.2714 26.2636 32.8851 26.4312 32.8851C26.5988 32.8851 26.8142 32.4986 26.8861 32.0398C26.9819 31.5327 27.1973 31.1946 27.3889 31.1946C27.6522 31.1946 27.7479 30.8806 27.7479 29.9871C27.7479 29.0694 27.8437 28.7796 28.107 28.7796C28.3943 28.7796 28.4661 28.4415 28.4661 27.0891C28.4661 25.7367 28.3943 25.3986 28.107 25.3986C27.8437 25.3986 27.7479 25.1088 27.7479 24.1911C27.7479 23.3459 27.6522 22.9354 27.3889 22.8388C27.1973 22.7663 26.9819 22.3316 26.8861 21.8727C26.8142 21.4139 26.5988 21.0516 26.4073 21.0516C26.1918 21.0516 26.0721 20.7619 26.0721 20.2064C26.0721 19.5302 25.9763 19.3612 25.5933 19.3612C25.3299 19.3612 25.1145 19.1921 25.1145 18.999C25.1145 18.7574 25.3778 18.6367 25.9524 18.6367C26.527 18.6367 26.7903 18.7574 26.7903 18.999C26.7903 19.2405 27.0536 19.3612 27.6282 19.3612C28.1789 19.3612 28.4661 19.482 28.4661 19.6993C28.4661 20.0857 29.1843 20.3272 30.3335 20.3272C30.8602 20.3272 31.0996 20.4479 31.0996 20.6894C31.0996 20.9793 31.4827 21.0516 33.1345 21.0516C34.7385 21.0516 35.2174 20.9793 35.3131 20.6894C35.4089 20.4479 35.792 20.3272 36.5102 20.3272C37.2283 20.3272 37.6114 20.2064 37.7072 19.9649C37.779 19.7717 38.2099 19.5543 38.6648 19.4578C39.1197 19.3853 39.4788 19.168 39.4788 18.9748C39.4788 18.7574 39.766 18.6367 40.3167 18.6367C40.8913 18.6367 41.1546 18.5159 41.1546 18.2744C41.1546 18.0813 41.3222 17.9122 41.5137 17.9122C41.7053 17.9122 41.8728 17.6948 41.8728 17.4292C41.8728 17.0428 41.7053 16.9462 41.1307 16.9462C40.604 16.9462 40.3646 16.8255 40.2688 16.4632C40.173 16.1009 39.9337 15.9802 39.3351 15.9802C38.7606 15.9802 38.5211 15.8594 38.5211 15.6179C38.5211 15.3765 38.2818 15.2557 37.8748 15.2557C36.8453 15.2557 36.1271 14.9901 36.1271 14.6279C36.1271 14.3622 35.6004 14.2898 33.6852 14.2898C30.908 14.2898 30.142 14.4346 30.142 14.9176C30.142 15.135 29.8547 15.2557 29.3041 15.2557C28.7295 15.2557 28.4661 15.3765 28.4661 15.6179C28.4661 15.8594 28.2268 15.9802 27.724 15.9802C27.1973 15.9802 26.9579 16.1009 26.8621 16.4632C26.6706 17.1636 25.3539 17.1636 25.3539 16.4632C25.3539 16.1975 25.5215 15.9802 25.713 15.9802C25.9045 15.9802 26.0721 15.7629 26.0721 15.4972C26.0721 15.2316 26.2157 15.0142 26.4073 15.0142C26.5988 15.0142 26.7664 14.6279 26.8621 13.9999C26.934 13.4445 27.1733 12.9132 27.3649 12.7925C27.6761 12.5992 27.7479 12.0438 27.7479 9.38733C27.7479 5.90977 27.6282 5.11283 27.1254 5.11283C26.91 5.11283 26.7903 4.82303 26.7903 4.26759C26.7903 3.71214 26.6706 3.42235 26.4552 3.42235C26.2636 3.42235 26.0482 3.0601 25.9763 2.57711C25.8805 2.06996 25.6651 1.73186 25.4736 1.73186C25.2821 1.73186 25.1145 1.51452 25.1145 1.24887C25.1145 0.983217 24.9947 0.765869 24.8512 0.765869C24.3244 0.765869 23.4386 1.85261 23.4386 2.50465C23.4386 2.93935 23.3189 3.18085 23.0795 3.18085C22.8162 3.18085 22.7204 3.44649 22.7204 4.05024C22.7204 4.70229 22.6007 4.94378 22.2416 5.04038C21.8346 5.16112 21.7628 5.37847 21.7628 6.46521C21.7628 7.45535 21.667 7.76932 21.4037 7.76932C21.2121 7.76932 21.0446 7.55195 21.0446 7.2863C21.0446 7.02066 20.9009 6.80331 20.7094 6.80331C20.3263 6.80331 20.087 6.07882 20.087 4.91963C20.087 4.38833 19.9672 4.14684 19.7279 4.14684C19.4884 4.14684 19.3688 3.90534 19.3688 3.3982C19.3688 2.8669 19.2491 2.6254 18.89 2.5288C18.5309 2.4322 18.4111 2.1907 18.4111 1.58696C18.4111 0.81417 18.3632 0.765869 17.5732 0.765869C16.9029 0.765869 16.7353 0.862472 16.7353 1.24887ZM17.6929 3.78459C17.6929 3.97779 17.8365 4.14684 18.0281 4.14684C18.2196 4.14684 18.4351 4.50908 18.5069 4.96793C18.6026 5.42677 18.8181 5.86147 19.0096 5.93392C19.2969 6.03052 19.3688 6.68256 19.3688 9.31487C19.3688 12.3336 19.3448 12.551 18.89 12.6717C18.5548 12.7683 18.4111 13.0098 18.4111 13.5169C18.4111 14.0965 18.2914 14.2656 17.8126 14.3864C16.9747 14.6037 16.7353 14.4105 16.7353 13.5411C16.7353 13.1064 16.6156 12.8407 16.4002 12.8407C16.2086 12.8407 16.0171 12.4544 15.9213 11.8989C15.8495 11.3676 15.6579 10.9088 15.5143 10.8605C15.3467 10.8122 15.1792 10.136 15.1074 9.339C15.0116 8.17988 15.0595 7.86591 15.4186 7.62441C15.6579 7.43121 15.8734 6.87576 15.9453 6.22371C16.041 5.49923 16.1846 5.11283 16.4002 5.11283C16.6156 5.11283 16.7353 4.82303 16.7353 4.26759C16.7353 3.59139 16.8311 3.42235 17.2141 3.42235C17.4774 3.42235 17.6929 3.59139 17.6929 3.78459ZM25.1145 4.17099C25.1145 4.70229 25.2342 4.94378 25.5933 5.04038C26.0003 5.13697 26.0721 5.37847 26.0721 6.34447C26.0721 7.238 26.1679 7.5278 26.4312 7.5278C26.7185 7.5278 26.7903 7.86591 26.7903 9.21829C26.7903 10.5707 26.7185 10.9088 26.4312 10.9088C26.1918 10.9088 26.0721 11.1503 26.0721 11.6815C26.0721 12.8407 25.8327 13.5652 25.4496 13.5652C25.2581 13.5652 25.1145 13.7826 25.1145 14.0483C25.1145 14.3139 24.9469 14.5312 24.7554 14.5312C24.5638 14.5312 24.3963 14.338 24.3963 14.0724C24.3963 13.8309 24.1808 13.5652 23.9175 13.4928C23.5584 13.3962 23.4386 13.1547 23.4386 12.6234C23.4386 12.1163 23.3189 11.8748 23.0795 11.8748C22.7922 11.8748 22.7204 11.4401 22.7204 9.339C22.7204 7.35876 22.7922 6.80331 23.0556 6.80331C23.271 6.80331 23.4147 6.41691 23.5105 5.66827C23.5823 5.01623 23.7738 4.46079 24.0132 4.34003C24.2287 4.21929 24.3963 3.95364 24.3963 3.78459C24.3963 3.59139 24.5638 3.42235 24.7554 3.42235C24.9947 3.42235 25.1145 3.66384 25.1145 4.17099ZM21.8346 12.0438C21.9065 12.6959 22.0979 13.2513 22.3374 13.3721C22.5528 13.4928 22.7204 13.9033 22.7204 14.2898C22.7204 14.7727 22.8401 15.0142 23.0795 15.0142C23.271 15.0142 23.4386 15.2316 23.4386 15.4972C23.4386 15.7629 23.6062 15.9802 23.7977 15.9802C23.9893 15.9802 24.2047 16.3183 24.3005 16.8496C24.3963 17.3085 24.6117 17.7673 24.7793 17.8398C25.2342 18.0088 25.2103 18.3952 24.7554 18.3952C24.5638 18.3952 24.3963 18.5884 24.3963 18.854C24.3963 19.0955 24.1808 19.3612 23.9175 19.4336C23.5584 19.5302 23.4386 19.7717 23.4386 20.303C23.4386 20.8102 23.3189 21.0516 23.0795 21.0516C22.8401 21.0516 22.7204 21.3174 22.7204 21.8969C22.7204 22.4523 22.6007 22.7422 22.3852 22.7422C22.0022 22.7422 21.7628 23.4666 21.7628 24.6017C21.7628 25.6884 21.1403 25.6401 20.9488 24.5534C20.853 24.0462 20.6376 23.7081 20.4461 23.7081C20.2067 23.7081 20.087 23.4425 20.087 22.8629C20.087 22.2833 19.9672 22.0177 19.7279 22.0177C19.4884 22.0177 19.3688 21.752 19.3688 21.1724C19.3688 20.5928 19.2491 20.3272 19.0096 20.3272C18.8181 20.3272 18.6026 19.9891 18.5069 19.482C18.4351 19.0231 18.2196 18.6367 18.0281 18.6367C17.8605 18.6367 17.669 18.5401 17.5732 18.3952C17.3577 18.0329 17.7169 16.9462 18.076 16.9462C18.2675 16.9462 18.4111 16.7289 18.4111 16.4632C18.4111 16.1975 18.5787 15.9802 18.7702 15.9802C18.9618 15.9802 19.1772 15.6421 19.273 15.135C19.3448 14.6761 19.5603 14.2898 19.7279 14.2898C19.8954 14.2898 20.063 13.8309 20.1588 13.1547C20.2306 12.5026 20.4221 11.9472 20.6616 11.8264C20.877 11.7057 21.0446 11.4401 21.0446 11.2711C21.0446 11.0778 21.1882 10.9088 21.3798 10.9088C21.5952 10.9088 21.7389 11.2952 21.8346 12.0438ZM9.07431 15.6179C9.07431 15.9078 9.38554 15.9802 10.3911 15.9802C11.3487 15.9802 11.7078 16.0768 11.7078 16.3183C11.7078 16.6806 12.426 16.9462 13.4555 16.9462C13.8146 16.9462 14.1018 17.0186 14.1018 17.1152C14.1018 17.236 14.1737 17.55 14.2455 17.8398C14.3652 18.3228 14.2694 18.3952 13.4076 18.5401C12.8569 18.6367 12.426 18.8299 12.426 18.999C12.426 19.1921 11.9232 19.337 10.9417 19.4095C10.1038 19.482 9.40952 19.651 9.36163 19.7959C9.24187 20.1582 7.70972 20.1823 7.59002 19.8442C7.54213 19.6993 6.94362 19.5302 6.24934 19.4336C5.43537 19.337 5.00444 19.1921 5.00444 18.9748C5.00444 18.7574 4.71715 18.6367 4.16652 18.6367C3.37648 18.6367 3.32861 18.5884 3.32861 17.7914C3.32861 16.9945 3.37648 16.9462 4.16652 16.9462C4.66927 16.9462 5.05232 16.8013 5.19596 16.5598C5.31566 16.3183 5.86629 16.1252 6.51269 16.0527C7.25485 15.9561 7.63786 15.8112 7.63786 15.5938C7.63786 15.3765 7.90127 15.2557 8.35608 15.2557C8.83495 15.2557 9.07431 15.3765 9.07431 15.6179ZM34.4513 15.6179C34.4513 15.8836 34.7385 15.9802 35.6483 15.9802C36.558 15.9802 36.8453 16.0768 36.8453 16.3425C36.8453 16.584 37.1805 16.753 37.8269 16.8496C38.7366 16.9945 38.7845 17.067 38.6409 17.6466C38.4254 18.4677 38.4732 18.4435 37.2044 18.5643C36.5102 18.6609 36.1271 18.8058 36.1271 19.0231C36.1271 19.2887 35.5046 19.3612 33.1345 19.3612C30.6447 19.3612 30.142 19.3129 30.142 18.999C30.142 18.7574 29.8787 18.6367 29.3041 18.6367C28.7295 18.6367 28.4661 18.5159 28.4661 18.2744C28.4661 18.0813 28.2985 17.9122 28.107 17.9122C27.9155 17.9122 27.7479 17.6948 27.7479 17.4292C27.7479 17.0428 27.9155 16.9462 28.5859 16.9462C29.1365 16.9462 29.4238 16.8255 29.4238 16.6081C29.4238 16.2217 30.142 15.9802 31.2911 15.9802C31.8178 15.9802 32.0572 15.8594 32.0572 15.6179C32.0572 15.3523 32.3445 15.2557 33.2543 15.2557C34.164 15.2557 34.4513 15.3523 34.4513 15.6179ZM18.4111 21.8003C18.4111 22.2108 18.6266 22.8146 18.89 23.1527C19.2251 23.5874 19.3688 24.1428 19.3688 24.9398C19.3688 25.8334 19.4645 26.1231 19.7279 26.1231C19.9672 26.1231 20.087 26.3888 20.087 26.9684C20.087 27.548 19.9672 27.8136 19.7279 27.8136C19.4645 27.8136 19.3688 28.1034 19.3688 29.0211C19.3688 29.8664 19.273 30.2769 19.0096 30.3735C18.8181 30.446 18.6026 30.8806 18.5069 31.3637C18.3632 32.1123 18.2914 32.1847 17.5972 32.1123C16.9747 32.0398 16.8311 31.919 16.7832 31.3153C16.7353 30.9289 16.5437 30.4942 16.3762 30.3493C16.2086 30.2286 16.0171 29.6249 15.9453 29.0211C15.8734 28.4415 15.6819 27.9102 15.5622 27.8619C15.227 27.7411 15.227 26.1956 15.5622 26.0748C15.7058 26.0265 15.8734 25.4711 15.9453 24.8432C16.041 24.0946 16.1846 23.7081 16.4002 23.7081C16.6156 23.7081 16.7353 23.4425 16.7353 23.0319C16.7353 21.9935 16.9986 21.3174 17.4295 21.2207C18.2675 20.9793 18.4111 21.0516 18.4111 21.8003ZM25.1145 21.5347C25.1145 21.8003 25.2581 22.0177 25.4496 22.0177C25.8087 22.0177 26.0721 22.7422 26.0721 23.7565C26.0721 24.1911 26.1918 24.4327 26.4312 24.4327C26.7185 24.4327 26.7903 24.8673 26.7903 26.9684C26.7903 28.9487 26.7185 29.5041 26.4552 29.5041C26.2396 29.5041 26.0961 29.8905 26.0003 30.615C25.8805 31.75 25.5693 32.1606 24.8272 32.1606C24.5638 32.1606 24.3963 31.9674 24.3963 31.6775C24.3963 31.4119 24.2526 31.1946 24.0611 31.1946C23.7019 31.1946 23.4386 30.4701 23.4386 29.4317C23.4386 29.0211 23.3189 28.7796 23.0795 28.7796C22.7922 28.7796 22.7204 28.3932 22.7204 26.7268C22.7204 25.0605 22.7922 24.6742 23.0795 24.6742C23.3429 24.6742 23.4386 24.4084 23.4386 23.7081C23.4386 23.0319 23.5344 22.7422 23.7977 22.7422C23.9893 22.7422 24.2047 22.4041 24.3005 21.8969C24.4681 21.0034 25.1145 20.7135 25.1145 21.5347Z" stroke="#F5841F" stroke-width="0.8"/>
</g>
<path d="M53.0921 29.9558H52.5312V34.8991H53.0921V29.9558Z" fill="#050301"/>
<path d="M55.3203 30.4723H56.9872V34.8991H57.5559V30.4723H59.2228V29.9558H55.3203V30.4723Z" fill="#050301"/>
<path d="M62.4931 32.4915H60.5195V33.0628H62.4931V32.4915Z" fill="#050301"/>
<path d="M66.6414 29.9558H64.7832V34.8991H65.3441V33.154H66.5497C67.6059 33.154 68.4997 32.6036 68.4997 31.5367C68.4997 30.548 67.7606 29.9558 66.6414 29.9558ZM66.5706 32.6479H65.3441V30.4723H66.5995C67.4015 30.4723 67.9335 30.8401 67.9335 31.5471C67.9335 32.2096 67.3936 32.6479 66.5706 32.6479Z" fill="#050301"/>
<path d="M71.2093 32.6609H73.9193V32.1523H71.2093V30.4645H74.239V29.9558H70.6484V34.8991H74.2731V34.3905H71.2093V32.6609Z" fill="#050301"/>
<path d="M82.3899 34.3905H80.0184V29.9558H79.4596V34.3905H77.0881V29.9558H76.5293V34.8991H82.948V29.9558H82.3899V34.3905Z" fill="#050301"/>
<path d="M86.0416 32.6609H88.7519V32.1523H86.0416V30.4645H89.0716V29.9558H85.4805V34.8991H89.1051V34.3905H86.0416V32.6609Z" fill="#050301"/>
<path d="M94.7865 32.1523H91.9224V29.9558H91.3613V34.8991H91.9224V32.6766H94.7865V34.8991H95.3476V29.9558H94.7865V32.1523Z" fill="#050301"/>
<path d="M98.44 34.0592V29.9558H97.8789V34.8991H98.4271L101.386 30.7984V34.8991H101.939V29.9558H101.407L98.44 34.0592Z" fill="#050301"/>
<path d="M104.642 30.4594C104.393 30.6993 104.268 31.0672 104.268 31.4481C104.268 32.275 104.829 32.7758 105.623 32.9167L104.068 34.9018H104.75L106.226 33.0106H107.651V34.9018H108.212V29.9585H106.092C105.452 29.9585 104.949 30.1568 104.645 30.4594H104.642ZM107.649 30.4594V32.5359H106.123C105.363 32.5359 104.826 32.1341 104.826 31.4898C104.826 30.8455 105.309 30.4594 106.123 30.4594H107.649Z" fill="#050301"/>
<path d="M117.876 29.9558H114.627V30.8167C114.627 32.4184 114.349 33.6339 113.875 34.3905H113.363V36H113.838L113.937 34.8991H117.968V36H118.437L118.524 34.3905H117.879V29.9558H117.876ZM117.318 34.3905H114.509C114.92 33.7122 115.169 32.3844 115.169 31.1062V30.4645H117.318V34.3905Z" fill="#050301"/>
<path d="M121.318 30.8532C121.318 34.2209 120.673 34.4557 120.288 34.4557C120.133 34.4557 119.926 34.4192 119.847 34.3853L119.734 34.8366C119.863 34.8861 120.159 34.9565 120.379 34.9565C121.145 34.9565 121.855 34.4688 121.855 31.0019V30.4645H123.97V34.8991H124.531V29.9558H121.318V30.8532Z" fill="#050301"/>
<path d="M127.234 30.4594C126.985 30.6993 126.86 31.0672 126.86 31.4481C126.86 32.275 127.42 32.7758 128.215 32.9167L126.66 34.9018H127.342L128.817 33.0106H130.243V34.9018H130.804V29.9585H128.684C128.044 29.9585 127.541 30.1568 127.236 30.4594H127.234ZM130.243 30.4594V32.5359H128.718C127.957 32.5359 127.42 32.1341 127.42 31.4898C127.42 30.8455 127.903 30.4594 128.718 30.4594H130.243Z" fill="#050301"/>
<path d="M138.621 31.9827H137.153V30.4645H140.154V29.9558H136.592V34.8991H138.678C139.784 34.8991 140.507 34.3905 140.507 33.4227C140.507 32.4549 139.677 31.9827 138.621 31.9827ZM138.636 34.3905H137.153V32.4757H138.607C139.43 32.4757 139.949 32.7732 139.949 33.394C139.949 34.1061 139.438 34.3905 138.636 34.3905Z" fill="#050301"/>
<path d="M143.303 34.0592V29.9558H142.742V34.8991H143.287L146.247 30.7984V34.8991H146.799V29.9558H146.267L143.303 34.0592Z" fill="#050301"/>
<path d="M151.671 32.3635C152.124 32.2017 152.578 31.8626 152.578 31.1974C152.578 30.4357 151.891 29.8774 150.903 29.8774C150.117 29.8774 149.598 30.1096 149.1 30.5349L149.428 30.9235C149.86 30.5349 150.329 30.3653 150.89 30.3653C151.543 30.3653 152.012 30.7383 152.012 31.247C152.012 31.8339 151.508 32.1783 150.798 32.1783H150.253V32.6374H150.798C151.559 32.6374 152.14 32.906 152.14 33.5478C152.14 34.1347 151.595 34.4999 150.985 34.4999C150.269 34.4999 149.742 34.2678 149.239 33.793L148.906 34.1817C149.488 34.7112 150.12 34.9799 150.976 34.9799C152.012 34.9799 152.714 34.3591 152.714 33.5739C152.714 32.9165 152.261 32.5356 151.671 32.3583V32.3635Z" fill="#050301"/>
<path d="M158.398 32.1523H155.533V29.9558H154.973V34.8991H155.533V32.6766H158.398V34.8991H158.959V29.9558H158.398V32.1523Z" fill="#050301"/>
<path d="M162.051 32.6609H164.761V32.1523H162.051V30.4645H165.081V29.9558H161.49V34.8991H165.115V34.3905H162.051V32.6609Z" fill="#050301"/>
<path d="M169.657 34.4687C168.564 34.4687 167.733 33.5714 167.733 32.4288C167.733 31.2862 168.556 30.3888 169.657 30.3888C170.331 30.3888 170.799 30.6705 171.219 31.0671L171.588 30.6705C171.093 30.2036 170.567 29.8723 169.665 29.8723C168.203 29.8723 167.154 31.0305 167.154 32.4288C167.154 33.827 168.21 34.9852 169.644 34.9852C170.545 34.9852 171.112 34.667 171.631 34.1452L171.261 33.7566C170.787 34.2079 170.338 34.4687 169.657 34.4687Z" fill="#050301"/>
<path d="M175.884 29.9219H175.36L173.098 34.8991H173.672L174.262 33.5922H176.964L177.545 34.8991H178.148L175.884 29.9219ZM174.479 33.0913L175.614 30.5714L176.741 33.0913H174.479Z" fill="#050301"/>
<path d="M51.0786 16.5325C51.9191 17.3965 52.7231 18.0123 53.4905 18.38C54.2579 18.7476 55.1258 18.9314 56.0942 18.9314C56.8616 18.9314 57.5924 18.8028 58.2868 18.5454C58.9993 18.288 59.648 17.9388 60.2327 17.4976C60.8174 17.038 61.3198 16.4957 61.7401 15.8707C62.1603 15.2273 62.471 14.5195 62.6719 13.7474H52.6956V10.1352H62.6445C62.2243 8.57264 61.4386 7.35017 60.2875 6.46779C59.1547 5.56702 57.7843 5.11664 56.1764 5.11664C54.9887 5.11664 53.9747 5.31885 53.1342 5.72328C52.3119 6.1277 51.5537 6.7803 50.8593 7.68106H46.666C47.5431 5.71408 48.8221 4.1883 50.5031 3.1037C52.184 2.0191 54.1026 1.47681 56.2586 1.47681C57.6838 1.47681 59.0268 1.75255 60.2875 2.30404C61.5665 2.85553 62.6719 3.60923 63.6038 4.56515C64.5539 5.50268 65.3031 6.61485 65.8512 7.90166C66.3994 9.17008 66.6734 10.5212 66.6734 11.9551C66.6734 13.4257 66.3902 14.8137 65.8238 16.1189C65.2756 17.4057 64.5174 18.527 63.549 19.4829C62.5989 20.4389 61.4751 21.1926 60.1779 21.744C58.8806 22.2955 57.4919 22.5713 56.0119 22.5713C54.9705 22.5713 53.9747 22.4334 53.0245 22.1577C52.0744 21.8819 51.1882 21.4867 50.366 20.972C49.5621 20.4388 48.8403 19.8046 48.2008 19.0693C47.5796 18.3156 47.068 17.47 46.666 16.5325H51.0786ZM74.0668 6.93655H76.9169L83.2481 22.2128H79.3562L75.492 12.0654L71.6275 22.2128H67.7357L74.0668 6.93655ZM84.8179 6.93655H88.4357V17.0288L95.2327 6.93655H98.9327V22.2128H95.3149V12.1206L88.5179 22.2128H84.8179V6.93655ZM104.443 10.2731H100.908V6.93655H111.624V10.2731H108.088V22.2128H104.443V10.2731Z" fill="black"/>
<path d="M133.103 16.5325C132.701 17.47 132.18 18.3156 131.541 19.0693C130.92 19.8046 130.207 20.4388 129.403 20.972C128.599 21.4867 127.713 21.8819 126.745 22.1577C125.794 22.4334 124.799 22.5713 123.757 22.5713C122.277 22.5713 120.889 22.2955 119.591 21.744C118.294 21.1926 117.161 20.4388 116.193 19.4829C115.243 18.527 114.484 17.4057 113.918 16.1188C113.37 14.8137 113.096 13.4257 113.096 11.9551C113.096 10.5212 113.37 9.17008 113.918 7.90166C114.466 6.61485 115.206 5.50268 116.138 4.56515C117.088 3.60923 118.193 2.85553 119.454 2.30404C120.733 1.75255 122.085 1.47681 123.511 1.47681C125.667 1.47681 127.585 2.0191 129.266 3.1037C130.947 4.1883 132.226 5.71408 133.103 7.68106H128.91C128.215 6.7803 127.448 6.1277 126.608 5.72327C125.785 5.31885 124.78 5.11664 123.593 5.11664C122.643 5.11664 121.756 5.29127 120.934 5.64055C120.112 5.98983 119.399 6.47698 118.796 7.102C118.193 7.70864 117.718 8.43476 117.371 9.28038C117.042 10.1076 116.878 11.0084 116.878 11.9827C116.878 12.9386 117.052 13.8394 117.399 14.685C117.764 15.5306 118.257 16.2659 118.879 16.8909C119.5 17.516 120.222 18.0123 121.044 18.38C121.866 18.7476 122.743 18.9314 123.675 18.9314C124.643 18.9314 125.511 18.7476 126.279 18.38C127.046 18.0123 127.85 17.3965 128.691 16.5325H133.103ZM134.85 14.6023C134.85 13.4809 135.06 12.4331 135.481 11.4588C135.901 10.4845 136.477 9.63885 137.207 8.92191C137.938 8.18659 138.797 7.61672 139.784 7.2123C140.789 6.78949 141.857 6.57808 142.99 6.57808C144.087 6.57808 145.119 6.78949 146.087 7.2123C147.074 7.6351 147.924 8.21417 148.636 8.94949C149.367 9.66642 149.943 10.512 150.363 11.4863C150.783 12.4606 150.993 13.4993 150.993 14.6023C150.993 15.7052 150.783 16.7439 150.363 17.7182C149.943 18.6741 149.367 19.5105 148.636 20.2274C147.905 20.9444 147.047 21.5143 146.06 21.9371C145.092 22.3599 144.05 22.5713 142.936 22.5713C141.821 22.5713 140.77 22.3599 139.784 21.9371C138.797 21.5143 137.938 20.9444 137.207 20.2274C136.477 19.5105 135.901 18.6741 135.481 17.7182C135.06 16.7439 134.85 15.7052 134.85 14.6023ZM142.908 19.2072C143.511 19.2072 144.077 19.0877 144.607 18.8487C145.156 18.6097 145.631 18.2788 146.033 17.856C146.435 17.4332 146.745 16.9461 146.964 16.3946C147.202 15.8247 147.321 15.2273 147.321 14.6023C147.321 13.9405 147.202 13.3338 146.964 12.7823C146.745 12.2125 146.435 11.7161 146.033 11.2933C145.631 10.8705 145.156 10.5396 144.607 10.3006C144.059 10.0617 143.475 9.94217 142.853 9.94217C142.269 9.94217 141.711 10.0708 141.181 10.3282C140.652 10.5672 140.186 10.8981 139.784 11.3209C139.4 11.7253 139.089 12.2125 138.852 12.7823C138.633 13.3338 138.523 13.9313 138.523 14.5747C138.523 15.2181 138.633 15.8247 138.852 16.3946C139.089 16.9461 139.409 17.4332 139.811 17.856C140.213 18.2788 140.679 18.6097 141.209 18.8487C141.739 19.0877 142.305 19.2072 142.908 19.2072ZM160.6 22.4886C157.896 22.268 155.895 21.5143 154.598 20.2274C153.301 18.9406 152.652 17.0656 152.652 14.6023C152.652 12.1389 153.301 10.2639 154.598 8.97706C155.895 7.67187 157.896 6.89979 160.6 6.66081V1.83527H164.246V6.66081C166.95 6.8814 168.95 7.6443 170.248 8.94949C171.545 10.2547 172.194 12.1389 172.194 14.6023C172.194 17.0656 171.545 18.9406 170.248 20.2274C168.95 21.5143 166.95 22.268 164.246 22.4886V27.3141H160.6V22.4886ZM160.6 10.0525C159.139 10.2547 158.061 10.7234 157.366 11.4588C156.672 12.1941 156.325 13.2419 156.325 14.6023C156.325 15.9626 156.663 17.0104 157.339 17.7457C158.033 18.4627 159.12 18.9131 160.6 19.0969V10.0525ZM164.246 19.0969C165.726 18.9131 166.804 18.4627 167.48 17.7457C168.174 17.0288 168.521 15.981 168.521 14.6023C168.521 13.2235 168.174 12.1757 167.48 11.4588C166.804 10.7234 165.726 10.2547 164.246 10.0525V19.0969ZM177.135 10.2731H173.6V6.93655H184.316V10.2731H180.781V22.2128H177.135V10.2731Z" fill="#F5841F"/>
</g>
<defs>
<clipPath id="clip0_1_37">
<rect width="185" height="36" fill="white"/>
</clipPath>
</defs>
</svg>
