<svg width="54" height="54" viewBox="0 0 54 54" fill="none" xmlns="http://www.w3.org/2000/svg">
<path d="M6.75 39.375C6.75 36.2138 6.75 34.6343 7.50825 33.498C7.83675 33.0075 8.2575 32.5868 8.75025 32.2583C9.88425 31.5 11.466 31.5 14.625 31.5C17.784 31.5 19.3658 31.5 20.4998 32.2583C20.9925 32.5868 21.4133 33.0075 21.7418 33.498C22.5 34.6343 22.5 36.2138 22.5 39.375C22.5 42.534 22.5 44.1135 21.7418 45.2475C21.4136 45.7399 20.9915 46.1627 20.4998 46.4918C19.3658 47.25 17.784 47.25 14.625 47.25C11.466 47.25 9.88425 47.25 8.75025 46.4918C8.25869 46.1634 7.83665 45.7413 7.50825 45.2498C6.75 44.1135 6.75 42.534 6.75 39.375ZM31.9568 41.5778C29.6258 39.2445 28.4602 38.079 28.1992 36.6773C28.096 36.1278 28.096 35.5639 28.1992 35.0145C28.4602 33.6128 29.6258 32.4473 31.9568 30.1163C34.2878 27.7853 35.4532 26.6175 36.855 26.3588C37.4062 26.2575 37.9688 26.2575 38.52 26.3588C39.9218 26.6175 41.085 27.783 43.4183 30.1163C45.7493 32.4473 46.9147 33.6128 47.1757 35.0145C47.2743 35.5651 47.2743 36.1289 47.1757 36.6795C46.9147 38.079 45.7493 39.2445 43.4183 41.5778C41.0873 43.9088 39.9218 45.0743 38.52 45.333C37.9698 45.4366 37.4052 45.4366 36.855 45.333C35.4532 45.0743 34.29 43.911 31.9568 41.5778ZM17.1765 12.9938C18.288 9.94276 18.8415 8.41501 19.9777 7.59151C20.4534 7.24224 20.9932 6.98995 21.5663 6.849C22.9275 6.5115 24.4553 7.06501 27.5063 8.17651C30.5573 9.288 32.085 9.84151 32.9107 10.9778C33.2572 11.4548 33.5093 11.9948 33.651 12.5663C33.9885 13.9298 33.435 15.4553 32.3235 18.5063C31.2143 21.5595 30.6585 23.085 29.5223 23.9108C29.0466 24.26 28.5068 24.5123 27.9337 24.6533C26.5725 24.9908 25.0447 24.435 21.9937 23.3258C18.9405 22.2143 17.415 21.6585 16.5893 20.5223C16.2408 20.0464 15.9893 19.5067 15.849 18.9338C15.5115 17.5725 16.065 16.047 17.1765 12.9938Z" stroke="#050301" stroke-width="3" stroke-linejoin="round"/>
</svg>
