<svg width="54" height="54" viewBox="0 0 54 54" fill="none" xmlns="http://www.w3.org/2000/svg">
<path d="M38.8125 6.75V9.765M38.8125 9.765C40.311 9.765 41.6655 10.3725 42.6465 11.3535M38.8125 9.765C37.314 9.765 35.9595 10.3725 34.9785 11.3535M42.6465 11.3535C43.1514 11.856 43.552 12.4535 43.825 13.1115C44.098 13.7696 44.2359 14.4751 44.235 15.1875M42.6465 11.3535L44.7795 9.2205M34.9785 11.3535C33.9975 12.3345 33.39 13.6912 33.39 15.1875H30.375M34.9785 11.3535L32.8455 9.2205M38.8125 20.61V23.625M42.6487 19.0237C41.6655 20.0047 40.311 20.6123 38.8125 20.6123C37.314 20.6123 35.9595 20.0047 34.9763 19.0237M42.6487 19.0237C43.6275 18.0427 44.235 16.686 44.235 15.1875M42.6487 19.0237L44.7795 21.1545M34.9763 19.0237C33.9953 18.0427 33.3877 16.686 33.3877 15.1875M34.9763 19.0237L32.8455 21.1545M47.25 15.1875H44.235M30.8025 43.7783C30.375 42.7433 30.375 41.4337 30.375 38.8125C30.375 36.1913 30.375 34.8818 30.8025 33.8468C31.0852 33.1643 31.4995 32.5442 32.0219 32.0219C32.5442 31.4995 33.1643 31.0852 33.8468 30.8025C34.8818 30.375 36.1913 30.375 38.8125 30.375C41.4337 30.375 42.7433 30.375 43.7783 30.8025C44.4607 31.0852 45.0808 31.4995 45.6031 32.0219C46.1255 32.5442 46.5398 33.1643 46.8225 33.8468C47.25 34.8818 47.25 36.1913 47.25 38.8125C47.25 41.4337 47.25 42.7433 46.8225 43.7783C46.5398 44.4607 46.1255 45.0808 45.6031 45.6031C45.0808 46.1255 44.4607 46.5398 43.7783 46.8225C42.7433 47.25 41.4337 47.25 38.8125 47.25C36.1913 47.25 34.8818 47.25 33.8468 46.8225C33.1643 46.5398 32.5442 46.1255 32.0219 45.6031C31.4995 45.0808 31.0852 44.4607 30.8025 43.7783ZM7.1775 43.7783C6.75 42.7433 6.75 41.4337 6.75 38.8125C6.75 36.1913 6.75 34.8818 7.1775 33.8468C7.46018 33.1643 7.87452 32.5442 8.39685 32.0219C8.91919 31.4995 9.53929 31.0852 10.2218 30.8025C11.2568 30.375 12.5663 30.375 15.1875 30.375C17.8087 30.375 19.1182 30.375 20.1532 30.8025C20.8357 31.0852 21.4558 31.4995 21.9781 32.0219C22.5005 32.5442 22.9148 33.1643 23.1975 33.8468C23.625 34.8818 23.625 36.1913 23.625 38.8125C23.625 41.4337 23.625 42.7433 23.1975 43.7783C22.9148 44.4607 22.5005 45.0808 21.9781 45.6031C21.4558 46.1255 20.8357 46.5398 20.1532 46.8225C19.1182 47.25 17.8087 47.25 15.1875 47.25C12.5663 47.25 11.2568 47.25 10.2218 46.8225C9.53929 46.5398 8.91919 46.1255 8.39685 45.6031C7.87452 45.0808 7.46018 44.4607 7.1775 43.7783ZM7.1775 20.1532C6.75 19.1182 6.75 17.8087 6.75 15.1875C6.75 12.5663 6.75 11.2568 7.1775 10.2218C7.46018 9.53929 7.87452 8.91919 8.39685 8.39685C8.91919 7.87452 9.53929 7.46018 10.2218 7.1775C11.2568 6.75 12.5663 6.75 15.1875 6.75C17.8087 6.75 19.1182 6.75 20.1532 7.1775C20.8357 7.46018 21.4558 7.87452 21.9781 8.39685C22.5005 8.91919 22.9148 9.53929 23.1975 10.2218C23.625 11.2568 23.625 12.5663 23.625 15.1875C23.625 17.8087 23.625 19.1182 23.1975 20.1532C22.9148 20.8357 22.5005 21.4558 21.9781 21.9781C21.4558 22.5005 20.8357 22.9148 20.1532 23.1975C19.1182 23.625 17.8087 23.625 15.1875 23.625C12.5663 23.625 11.2568 23.625 10.2218 23.1975C9.53929 22.9148 8.91919 22.5005 8.39685 21.9781C7.87452 21.4558 7.46018 20.8357 7.1775 20.1532Z" stroke="#050301" stroke-width="3" stroke-linecap="round" stroke-linejoin="round"/>
</svg>
