<svg width="54" height="54" viewBox="0 0 54 54" fill="none" xmlns="http://www.w3.org/2000/svg">
<path d="M42.0255 38.6505C42.6825 37.995 43.011 37.1985 43.011 36.261C43.011 35.3235 42.6825 34.5263 42.0255 33.8693C41.3685 33.2123 40.572 32.8845 39.636 32.886C38.7 32.8875 37.9028 33.2153 37.2443 33.8693C36.5858 34.5233 36.258 35.3205 36.261 36.261C36.264 37.2015 36.5918 37.998 37.2443 38.6505C37.8968 39.303 38.694 39.6315 39.636 39.636C40.578 39.6405 41.3745 39.312 42.0255 38.6505ZM42.786 45.5985C43.761 45.0735 44.5673 44.3423 45.2048 43.4048C44.3408 42.8797 43.4408 42.495 42.5048 42.2505C41.5688 42.006 40.6125 41.8845 39.636 41.886C38.6595 41.8875 37.7033 42.009 36.7673 42.2505C35.8313 42.492 34.9313 42.8768 34.0673 43.4048C34.7048 44.3423 35.511 45.0735 36.486 45.5985C37.461 46.1235 38.511 46.386 39.636 46.386C40.761 46.386 41.811 46.1235 42.786 45.5985ZM20.25 20.25H33.75V15.75C33.75 13.875 33.0938 12.2812 31.7813 10.9688C30.4688 9.65625 28.875 9 27 9C25.125 9 23.5313 9.65625 22.2188 10.9688C20.9063 12.2812 20.25 13.875 20.25 15.75V20.25ZM28.5143 47.25H14.8838C13.8488 47.25 12.984 46.9035 12.2895 46.2105C11.595 45.5175 11.2485 44.6528 11.25 43.6162V23.8837C11.25 22.8487 11.5973 21.9848 12.2918 21.2918C12.9863 20.5988 13.851 20.2515 14.886 20.25H18V15.75C18 13.2435 18.8738 11.1172 20.6213 9.37125C22.3673 7.62375 24.4935 6.75 27 6.75C29.5065 6.75 31.6335 7.62375 33.381 9.37125C35.1285 11.1187 36.0015 13.245 36 15.75V20.25H39.1163C40.1513 20.25 41.0153 20.5973 41.7083 21.2918C42.4013 21.9863 42.7485 22.851 42.75 23.886V26.55C42.45 26.4405 42.1073 26.358 41.7218 26.3025C41.3378 26.2485 40.9305 26.2215 40.5 26.2215V23.886C40.5 23.481 40.3703 23.1488 40.1108 22.8893C39.8513 22.6298 39.5198 22.5 39.1163 22.5H14.8838C14.4803 22.5 14.1488 22.6298 13.8893 22.8893C13.6298 23.1488 13.5 23.481 13.5 23.886V43.6162C13.5 44.0197 13.6298 44.3512 13.8893 44.6107C14.1488 44.8703 14.481 45 14.886 45H27.3285C27.456 45.438 27.612 45.834 27.7965 46.188C27.981 46.542 28.2203 46.896 28.5143 47.25ZM33.255 46.0148C31.509 44.2687 30.636 42.1425 30.636 39.636C30.636 37.1295 31.509 35.0025 33.255 33.255C35.001 31.5075 37.128 30.6345 39.636 30.636C42.141 30.636 44.2673 31.509 46.0148 33.255C47.7623 35.001 48.636 37.128 48.636 39.636C48.636 42.141 47.7623 44.2673 46.0148 46.0148C44.2673 47.7622 42.141 48.636 39.636 48.636C37.128 48.636 35.001 47.7622 33.255 46.0148ZM13.5 35.4802V45V22.5V35.4802Z" fill="#050301" stroke="#050301" stroke-width="0.4"/>
</svg>
