<svg width="54" height="54" viewBox="0 0 54 54" fill="none" xmlns="http://www.w3.org/2000/svg">
<path d="M23.142 42.4285L19.2849 52.0714M30.8563 42.4285L34.7134 52.0714M15.4277 52.0714H38.5706M50.142 7.71423H3.85631C3.34482 7.71423 2.85428 7.91742 2.4926 8.2791C2.13092 8.64078 1.92773 9.13132 1.92773 9.6428V40.4999C1.92773 41.0114 2.13092 41.502 2.4926 41.8637C2.85428 42.2253 3.34482 42.4285 3.85631 42.4285H50.142C50.6535 42.4285 51.1441 42.2253 51.5057 41.8637C51.8674 41.502 52.0706 41.0114 52.0706 40.4999V9.6428C52.0706 9.13132 51.8674 8.64078 51.5057 8.2791C51.1441 7.91742 50.6535 7.71423 50.142 7.71423Z" stroke="#050301" stroke-width="2.5" stroke-linecap="round" stroke-linejoin="round"/>
<path d="M17.3555 20.25L10.6055 26.0357L16.3912 30.8571M37.6055 21.2143L43.3912 26.0357L36.6412 31.8214M24.1055 33.75L29.8912 16.3928" stroke="#050301" stroke-width="2.5" stroke-linecap="round" stroke-linejoin="round"/>
</svg>
