<svg width="54" height="54" viewBox="0 0 54 54" fill="none" xmlns="http://www.w3.org/2000/svg">
<path d="M23.9359 17.1533C23.9354 15.1223 24.444 13.1236 25.4152 11.34C26.3863 9.55626 27.7892 8.04447 29.4954 6.94281C31.2016 5.84115 33.1567 5.18477 35.182 5.03367C37.2074 4.88258 39.2383 5.2416 41.089 6.0779C41.288 6.16776 41.4622 6.30455 41.5968 6.47653C41.7313 6.6485 41.8221 6.85054 41.8614 7.06531C41.9007 7.28008 41.8873 7.50118 41.8224 7.70964C41.7574 7.9181 41.6429 8.10771 41.4886 8.2622L35.2975 14.4533L38.7859 17.9444L44.977 11.7533C45.1313 11.5984 45.3209 11.4832 45.5296 11.4177C45.7382 11.3523 45.9596 11.3385 46.1748 11.3775C46.3899 11.4166 46.5923 11.5073 46.7647 11.6419C46.937 11.7765 47.0741 11.9509 47.164 12.1502C47.8525 13.6784 48.2359 15.374 48.2359 17.1533C48.2359 20.2907 47.0479 23.15 45.0958 25.3073C44.1861 24.88 43.2353 24.5462 42.2581 24.311C43.54 23.2097 44.502 21.784 45.0436 20.1831C45.5851 18.5823 45.6862 16.8653 45.3361 15.212L39.7417 20.8091C39.4886 21.0622 39.1453 21.2044 38.7873 21.2044C38.4293 21.2044 38.086 21.0622 37.8328 20.8091L32.4328 15.4091C32.3071 15.2837 32.2074 15.1347 32.1393 14.9707C32.0713 14.8067 32.0362 14.6309 32.0362 14.4533C32.0362 14.2757 32.0713 14.0999 32.1393 13.9359C32.2074 13.7719 32.3071 13.6229 32.4328 13.4975L38.0299 7.9031C36.4538 7.57165 34.819 7.64858 33.2809 8.12656C31.7428 8.60455 30.3524 9.46773 29.2417 10.6342C28.131 11.8006 27.3368 13.2316 26.9346 14.7912C26.5325 16.3509 26.5356 17.9874 26.9437 19.5455C27.0016 19.7695 27.001 20.0045 26.9419 20.2281C26.8828 20.4518 26.7672 20.6565 26.6062 20.8226L8.75385 39.3284C8.075 40.0237 7.70017 40.9602 7.71182 41.9319C7.72346 42.9036 8.12063 43.8309 8.81595 44.5097C9.51127 45.1885 10.4478 45.5634 11.4195 45.5517C12.3911 45.5401 13.3184 45.1429 13.9972 44.4476L24.9511 33.3506C24.3461 34.9028 24.0066 36.5457 23.9467 38.2106L15.9196 46.343C14.7406 47.551 13.13 48.2412 11.4421 48.2617C9.75416 48.2822 8.12723 47.6314 6.9192 46.4523C5.71116 45.2733 5.02098 43.6627 5.00047 41.9748C4.97996 40.2869 5.63082 38.6599 6.80985 37.4519L24.16 19.4753C24.011 18.7103 23.936 17.9327 23.9359 17.1533ZM28.3504 37.1873C29.0477 37.009 29.7022 36.6931 30.2756 36.2581C30.849 35.8232 31.3297 35.2781 31.6894 34.6548C32.0491 34.0314 32.2806 33.3425 32.3702 32.6284C32.4599 31.9144 32.4059 31.1896 32.2114 30.4967L31.7929 28.9928C32.4805 28.4654 33.2194 28.0181 34.0096 27.6509L34.9222 28.6175C35.4269 29.1529 36.0356 29.5796 36.711 29.8713C37.3865 30.163 38.1144 30.3136 38.8502 30.3139C39.5859 30.3141 40.314 30.164 40.9896 29.8728C41.6653 29.5815 42.2743 29.1553 42.7792 28.6202L43.654 27.6914C44.4604 28.073 45.2119 28.5401 45.9085 29.0927L45.5683 30.2321C45.3577 30.9369 45.2933 31.6773 45.3791 32.4079C45.4648 33.1384 45.6989 33.8438 46.067 34.4806C46.4351 35.1175 46.9295 35.6724 47.5197 36.1114C48.11 36.5504 48.7837 36.8641 49.4995 37.0334L50.4418 37.2548C50.5501 38.1664 50.5592 39.0871 50.4688 40.0007L49.2268 40.3193C48.5294 40.4973 47.8745 40.813 47.3009 41.2478C46.7272 41.6826 46.2462 42.2277 45.8862 42.8511C45.5262 43.4744 45.2945 44.1634 45.2047 44.8777C45.1149 45.5919 45.1687 46.3168 45.3631 47.0099L45.7843 48.5111C45.0949 49.0421 44.3551 49.4903 43.5649 49.8557L42.6523 48.8891C42.1479 48.3539 41.5395 47.9274 40.8644 47.6357C40.1893 47.344 39.4618 47.1933 38.7264 47.1928C37.9909 47.1923 37.2632 47.342 36.5877 47.6328C35.9122 47.9235 35.3032 48.3492 34.798 48.8837L33.9205 49.8152C33.1181 49.4367 32.3616 48.9674 31.666 48.4166L32.0089 47.2745C32.22 46.5695 32.2847 45.8289 32.1992 45.098C32.1137 44.3671 31.8796 43.6614 31.5115 43.0242C31.1433 42.3871 30.6488 41.8319 30.0584 41.3927C29.4679 40.9536 28.7939 40.6397 28.0777 40.4705L27.1327 40.2491C27.0246 39.3384 27.0156 38.4186 27.1057 37.5059L28.3504 37.1873ZM36.0859 38.7533C36.0859 39.4694 36.3704 40.1561 36.8768 40.6625C37.3831 41.1688 38.0699 41.4533 38.7859 41.4533C39.502 41.4533 40.1888 41.1688 40.6951 40.6625C41.2015 40.1561 41.4859 39.4694 41.4859 38.7533C41.4859 38.0372 41.2015 37.3505 40.6951 36.8441C40.1888 36.3378 39.502 36.0533 38.7859 36.0533C38.0699 36.0533 37.3831 36.3378 36.8768 36.8441C36.3704 37.3505 36.0859 38.0372 36.0859 38.7533Z" fill="#050301"/>
</svg>
